<?xml version="1.0" encoding="UTF-8" standalone="no"?>
<!-- Created with Inkscape (http://www.inkscape.org/) -->

<svg
   xmlns:dc="http://purl.org/dc/elements/1.1/"
   xmlns:cc="http://creativecommons.org/ns#"
   xmlns:rdf="http://www.w3.org/1999/02/22-rdf-syntax-ns#"
   xmlns:svg="http://www.w3.org/2000/svg"
   xmlns="http://www.w3.org/2000/svg"
   xmlns:sodipodi="http://sodipodi.sourceforge.net/DTD/sodipodi-0.dtd"
   xmlns:inkscape="http://www.inkscape.org/namespaces/inkscape"
   width="744.09448819"
   height="1052.3622047"
   id="svg2"
   version="1.1"
   inkscape:version="0.48.4 r9939"
   sodipodi:docname="New document 1">
  <defs
     id="defs4" />
  <sodipodi:namedview
     id="base"
     pagecolor="#ffffff"
     bordercolor="#666666"
     borderopacity="1.0"
     inkscape:pageopacity="0.0"
     inkscape:pageshadow="2"
     inkscape:zoom="1.979899"
     inkscape:cx="280.73094"
     inkscape:cy="919.04352"
     inkscape:document-units="px"
     inkscape:current-layer="layer1"
     showgrid="false"
     inkscape:window-width="1366"
     inkscape:window-height="705"
     inkscape:window-x="-8"
     inkscape:window-y="-8"
     inkscape:window-maximized="1" />
  <metadata
     id="metadata7">
    <rdf:RDF>
      <cc:Work
         rdf:about="">
        <dc:format>image/svg+xml</dc:format>
        <dc:type
           rdf:resource="http://purl.org/dc/dcmitype/StillImage" />
        <dc:title></dc:title>
      </cc:Work>
    </rdf:RDF>
  </metadata>
  <g
     inkscape:label="Layer 1"
     inkscape:groupmode="layer"
     id="layer1">
    <path
       style="fill:#000000"
       d="m 180.56,407.75346 0,-4.78873 -1.5725,-0.11377 c -1.28791,-0.0932 -1.5725,-0.24772 -1.5725,-0.85378 0,-0.69711 0.24667,-0.74 4.255,-0.74 4.00833,0 4.255,0.0429 4.255,0.74 0,0.60606 -0.28459,0.76061 -1.5725,0.85378 l -1.5725,0.11377 0,4.78873 0,4.78872 -1.11,0 -1.11,0 0,-4.78872 z m 13.32,-0.94628 0,-5.735 1.11,0 c 1.11,0 1.11,0 1.11,2.22 l 0,2.22 2.035,0 2.035,0 0,-2.22 c 0,-2.22 0,-2.22 1.11,-2.22 l 1.11,0 0,5.735 0,5.735 -1.11,0 -1.11,0 0,-2.405 0,-2.405 -2.035,0 -2.035,0 0,2.405 0,2.405 -1.11,0 -1.11,0 0,-5.735 z m 17.39,-0.0144 0,-5.74943 3.2375,0.10693 c 2.9552,0.0976 3.2375,0.17142 3.2375,0.8469 0,0.64132 -0.28365,0.7548 -2.1275,0.85096 l -2.1275,0.11096 0,1.46154 0,1.46154 2.035,0 c 1.924,0 2.035,0.0505 2.035,0.925 0,0.87453 -0.111,0.925 -2.035,0.925 l -2.035,0 0,1.48 0,1.48 2.22,0 c 2.12133,0 2.22,0.0411 2.22,0.925 0,0.91815 -0.0247,0.925 -3.33,0.925 l -3.33,0 0,-5.7494 z m 26.5475,5.49435 c -0.68319,-0.17856 -0.91189,-1.75787 -0.30855,-2.13075 0.18642,-0.11522 0.8043,-0.0326 1.37306,0.18367 1.26057,0.47926 2.56529,0.1998 2.87856,-0.61657 0.29892,-0.77896 -0.34308,-1.5372 -1.82621,-2.15692 -2.4172,-1.00995 -3.27498,-2.74887 -2.35356,-4.77118 0.52459,-1.15133 1.79107,-1.7232 3.81631,-1.7232 1.7447,0 2.59103,0.63736 2.19988,1.65671 -0.19478,0.50756 -0.52853,0.59525 -1.60845,0.42257 -2.7923,-0.44651 -3.37236,1.4527 -0.76261,2.49691 2.96025,1.18445 3.83472,3.87009 1.89253,5.81226 -0.91522,0.91523 -1.35618,1.07496 -2.8675,1.03863 -0.98228,-0.0237 -2.07733,-0.11907 -2.43346,-0.21213 z m 14.60536,-5.38745 0.10214,-5.6425 2.5088,-0.10967 c 2.37712,-0.1039 2.56888,-0.0496 3.65363,1.03518 1.02919,1.0292 1.1256,1.31539 0.95448,2.83361 -0.24514,2.17486 -1.18787,3.11318 -3.37547,3.35979 l -1.70644,0.19232 0,1.9869 c 0,1.96478 -0.0125,1.98687 -1.11964,1.98687 l -1.11963,0 0.10213,-5.6425 z m 4.35714,-1.01747 c 0.407,-0.407 0.74,-0.93502 0.74,-1.17338 0,-0.76427 -1.1973,-1.78662 -2.09235,-1.78662 -0.79452,0 -0.86765,0.15596 -0.86765,1.85 0,1.60332 0.0987,1.85 0.74,1.85 0.407,0 1.073,-0.333 1.48,-0.74 z m 11.1,0.925 0,-5.735 1.11,0 1.11,0 0,5.735 0,5.735 -1.11,0 -1.11,0 0,-5.735 z m 11.18286,0.0925 0.10214,-5.6425 2.18701,-0.11274 c 1.20285,-0.062 2.63813,0.0741 3.1895,0.30252 1.81374,0.75128 2.38845,3.26624 1.11604,4.88388 -0.39965,0.50805 -0.58379,1.06764 -0.41212,1.25238 0.5492,0.591 1.4861,4.38543 1.16268,4.70884 -0.17202,0.17202 -0.69996,0.25704 -1.17321,0.18896 -0.65859,-0.0948 -0.96964,-0.5022 -1.32587,-1.7367 -0.56201,-1.94757 -1.09154,-2.64214 -2.01433,-2.64214 -0.60241,0 -0.6947,0.29493 -0.6947,2.22 l 0,2.22 -1.11964,0 -1.11963,0 0.10213,-5.6425 z m 4.27481,-1.22348 c 0.45228,-0.31679 0.82233,-0.80438 0.82233,-1.08358 0,-0.79842 -1.07611,-1.67044 -2.06143,-1.67044 -0.81831,0 -0.89857,0.14874 -0.89857,1.665 0,1.85644 0.60327,2.16376 2.13767,1.08902 z m 11.55233,1.13098 0,-5.735 1.11,0 1.11,0 0,5.735 0,5.735 -1.11,0 -1.11,0 0,-5.735 z m 13.32,0.94628 0,-4.78873 -1.5725,-0.11377 c -1.28791,-0.0932 -1.5725,-0.24772 -1.5725,-0.85378 0,-0.69711 0.24667,-0.74 4.255,-0.74 4.00833,0 4.255,0.0429 4.255,0.74 0,0.60606 -0.28459,0.76061 -1.5725,0.85378 l -1.5725,0.11377 0,4.78873 0,4.78872 -1.11,0 -1.11,0 0,-4.78872 z m 25.97023,4.03925 c -1.47181,-0.89736 -2.29023,-2.68775 -2.29023,-5.01024 0,-3.40848 2.07576,-5.71029 5.14955,-5.71029 3.24018,0 5.20666,2.06475 5.20907,5.46938 0.003,3.84855 -1.853,5.99785 -5.17862,5.99785 -1.01875,0 -2.14038,-0.28982 -2.88977,-0.7467 z m 4.57054,-1.94524 c 0.7149,-0.61494 1.02662,-1.29429 1.14595,-2.4975 0.19182,-1.93414 -0.38877,-3.24823 -1.78012,-4.02919 -3.02782,-1.69948 -5.34095,3.8507 -2.7039,6.48773 1.10842,1.10845 2.08153,1.11981 3.33807,0.039 z m 12.00923,-3.05468 0,-5.74943 3.2375,0.10693 c 2.9552,0.0976 3.2375,0.17142 3.2375,0.84689 0,0.64132 -0.28365,0.7548 -2.1275,0.85097 l -2.1275,0.11096 0,1.44218 0,1.44223 1.9425,0.11181 c 1.65855,0.0955 1.9425,0.22004 1.9425,0.85185 0,0.63181 -0.28395,0.75636 -1.9425,0.85185 l -1.9425,0.11182 0,2.38568 0,2.38565 -1.11,0 -1.11,0 0,-5.74939 z m 26.27,0.0144 0,-5.735 3.145,0 c 3.108,0 3.145,0.0107 3.145,0.925 0,0.87453 -0.111,0.925 -2.035,0.925 l -2.035,0 0,1.48 0,1.48 2.035,0 c 1.924,0 2.035,0.0505 2.035,0.925 0,0.87453 -0.111,0.925 -2.035,0.925 l -2.035,0 0,1.48 0,1.48 2.22,0 c 2.12132,0 2.22,0.0411 2.22,0.925 0,0.91815 -0.0248,0.925 -3.33,0.925 l -3.33,0 0,-5.735 z m 3.6075,4.72061 -2.4975,-0.12943 0,-2.18463 0,-2.18462 2.1275,-0.1335 2.1275,-0.1335 -2.1275,-0.07 -2.1275,-0.07 0,-2.20235 0,-2.20235 2.3125,-0.13135 2.3125,-0.13135 -2.4975,-0.0713 -2.4975,-0.0713 0,4.995 0,4.995 2.6825,-0.0725 2.6825,-0.0725 -2.4975,-0.12946 z m 11.1925,-4.69604 0,-5.75957 1.08288,0 c 0.96851,0 1.32027,0.37943 3.33,3.59185 l 2.24712,3.59181 0,-3.61642 0,-3.61638 1.0175,0.11707 1.0175,0.11707 0,5.55 0,5.55 -1.08443,0 c -0.97044,0 -1.30921,-0.36523 -3.22293,-3.47474 l -2.13848,-3.47475 -0.10708,3.47475 -0.10708,3.47474 -1.0175,0.11707 -1.0175,0.11707 0,-5.75957 z m 1.53983,-3.94653 c 0.44315,-0.27391 0.10678,-1.07304 -0.45166,-1.07304 -0.20454,0 -0.31535,2.09886 -0.26862,5.0875 l 0.0796,5.0875 0.11784,-4.42583 c 0.0714,-2.68154 0.27746,-4.52451 0.52285,-4.67613 z m 6.23017,8.36192 c 0,-0.30525 -0.27014,-0.555 -0.60029,-0.555 -0.49165,0 -0.51696,0.10046 -0.13971,0.555 0.25334,0.30525 0.52348,0.555 0.60029,0.555 0.0769,0 0.13971,-0.24975 0.13971,-0.555 z m -0.0996,-8.05867 c -0.0776,-0.85873 -0.14016,-0.0628 -0.13901,1.76867 0,1.8315 0.0646,2.5341 0.14108,1.56133 0.0764,-0.97277 0.0756,-2.47127 -0.004,-3.33 z m 12.04602,8.75076 c -1.39853,-0.68957 -2.69638,-3.08924 -2.69638,-4.98549 0,-1.88815 1.43027,-4.40896 2.95423,-5.20672 2.43589,-1.27513 6.69374,-0.66245 6.10256,0.87809 -0.18397,0.47941 -0.69161,0.59507 -2.39335,0.54527 -1.82306,-0.0534 -2.30821,0.0758 -3.111,0.82843 -1.23235,1.15536 -1.54656,2.87464 -0.83608,4.57508 0.43845,1.04929 0.87001,1.42535 2.03718,1.77504 1.9375,0.58049 2.64646,0.27905 2.64646,-1.12517 0,-1.00522 -0.11784,-1.12162 -1.13575,-1.12162 -0.96615,0 -1.11807,-0.12428 -1.0175,-0.8325 0.10626,-0.7481 0.32456,-0.8325 2.15325,-0.8325 l 2.035,0 0.10878,2.68546 c 0.10519,2.59696 0.0769,2.6976 -0.85659,3.0525 -1.45177,0.55197 -4.6482,0.42613 -5.99081,-0.23587 z m 3.293,-0.38983 c -0.26711,-0.1069 -0.58623,-0.0938 -0.70918,0.0292 -0.12295,0.12295 0.0956,0.21041 0.48562,0.19436 0.43105,-0.0178 0.5187,-0.10545 0.22356,-0.22356 z m 2.41499,-3.36138 c -0.0844,-0.556 -0.15178,-0.0118 -0.14971,1.20912 0.004,1.221 0.0711,1.67588 0.15348,1.01088 0.0824,-0.66504 0.0807,-1.66404 -0.004,-2.22 z m -7.02934,-2.21338 c -0.0848,-0.55962 -0.15414,-0.10175 -0.15414,1.0175 0,1.11925 0.0693,1.57713 0.15414,1.0175 0.0848,-0.55962 0.0848,-1.47537 0,-2.035 z m 1.21497,-2.4975 c 0.25334,-0.30525 0.37736,-0.555 0.27561,-0.555 -0.10175,0 -0.39227,0.24975 -0.64561,0.555 -0.25334,0.30525 -0.37736,0.555 -0.27561,0.555 0.10175,0 0.39227,-0.24975 0.64561,-0.555 z m 3.76938,-1.54774 c -0.26711,-0.1069 -0.58623,-0.0938 -0.70918,0.0292 -0.12296,0.12295 0.0956,0.21041 0.48562,0.19436 0.43105,-0.0178 0.5187,-0.10545 0.22356,-0.22356 z m 11.77062,4.87774 0,-5.735 1.11,0 1.11,0 0,5.735 0,5.735 -1.11,0 -1.11,0 0,-5.735 z m 1.01506,-2.48129 c -0.0704,-1.48429 -0.1285,-0.36771 -0.12906,2.48129 0,2.849 0.057,4.06342 0.12802,2.69871 0.071,-1.36475 0.0715,-3.69575 0,-5.18 z m 10.08494,2.50586 0,-5.75957 1.08288,0 c 0.96851,0 1.32027,0.37944 3.33,3.59185 l 2.24712,3.59181 0,-3.61641 0,-3.61638 1.0175,0.11706 1.0175,0.11707 0,5.55 0,5.55 -1.08443,0 c -0.97044,0 -1.30921,-0.36522 -3.22293,-3.47474 l -2.13848,-3.47475 -0.10708,3.47475 -0.10708,3.47474 -1.0175,0.11707 -1.0175,0.11707 0,-5.75957 z m 1.53983,-3.94653 c 0.44315,-0.27391 0.10678,-1.07304 -0.45166,-1.07304 -0.20454,0 -0.31535,2.09886 -0.26862,5.0875 l 0.0796,5.0875 0.11784,-4.42583 c 0.0714,-2.68153 0.27746,-4.5245 0.52285,-4.67613 z m 6.23017,8.36196 c 0,-0.30525 -0.27014,-0.555 -0.60029,-0.555 -0.49165,0 -0.51696,0.10046 -0.13971,0.555 0.25334,0.30525 0.52348,0.555 0.60029,0.555 0.0769,0 0.13971,-0.24975 0.13971,-0.555 z m -0.0996,-8.05867 c -0.0776,-0.85873 -0.14016,-0.0628 -0.13901,1.76867 0,1.8315 0.0646,2.5341 0.14108,1.56133 0.0764,-0.97277 0.0756,-2.47127 -0.004,-3.33 z m 10.08964,3.61867 0,-5.735 3.145,0 c 3.108,0 3.145,0.0107 3.145,0.925 0,0.87453 -0.111,0.925 -2.035,0.925 l -2.035,0 0,1.48 0,1.48 2.035,0 c 1.924,0 2.035,0.0505 2.035,0.925 0,0.87453 -0.111,0.925 -2.035,0.925 l -2.035,0 0,1.48 0,1.48 2.22,0 c 2.12132,0 2.22,0.0411 2.22,0.925 0,0.91816 -0.0248,0.925 -3.33,0.925 l -3.33,0 0,-5.735 z m 3.6075,4.72061 -2.4975,-0.12943 0,-2.18462 0,-2.18463 2.1275,-0.1335 2.1275,-0.13349 -2.1275,-0.07 -2.1275,-0.07 0,-2.20235 0,-2.20235 2.3125,-0.13135 2.3125,-0.13135 -2.4975,-0.0713 -2.4975,-0.0713 0,4.995 0,4.995 2.6825,-0.0725 2.6825,-0.0725 -2.4975,-0.12946 z m 11.1925,-4.72061 0,-5.735 3.145,0 c 3.108,0 3.145,0.0107 3.145,0.925 0,0.87453 -0.111,0.925 -2.035,0.925 l -2.035,0 0,1.48 0,1.48 2.035,0 c 1.924,0 2.035,0.0505 2.035,0.925 0,0.87453 -0.111,0.925 -2.035,0.925 l -2.035,0 0,1.48 0,1.48 2.22,0 c 2.12132,0 2.22,0.0411 2.22,0.925 0,0.91816 -0.0248,0.925 -3.33,0.925 l -3.33,0 0,-5.735 z m 3.6075,4.72061 -2.4975,-0.12943 0,-2.18462 0,-2.18463 2.1275,-0.1335 2.1275,-0.13349 -2.1275,-0.07 -2.1275,-0.07 0,-2.20235 0,-2.20235 2.3125,-0.13135 2.3125,-0.13135 -2.4975,-0.0713 -2.4975,-0.0713 0,4.995 0,4.995 2.6825,-0.0725 2.6825,-0.0725 -2.4975,-0.12946 z m 11.27538,-4.62811 0.10212,-5.6425 2.50879,-0.10967 c 2.35634,-0.103 2.57557,-0.0429 3.60749,0.98905 1.29456,1.29456 1.44378,2.86754 0.39487,4.16287 -0.63259,0.78122 -0.65072,0.9721 -0.17882,1.88463 0.28878,0.55844 0.63,1.78092 0.75824,2.71658 0.23284,1.69874 0.23166,1.701 -0.82451,1.57886 -0.89488,-0.10348 -1.12928,-0.37062 -1.52259,-1.73518 -0.56125,-1.94731 -1.09083,-2.64214 -2.01376,-2.64214 -0.60243,0 -0.69471,0.29493 -0.69471,2.22 l 0,2.22 -1.11962,0 -1.11966,0 0.10216,-5.6425 z m 1.0545,0.0893 c 0,-2.49476 -0.0919,-4.62463 -0.20028,-4.73304 -0.10841,-0.10837 -0.1971,2.02294 -0.1971,4.73626 0,2.71332 0.0901,4.84319 0.20032,4.73301 0.11018,-0.11015 0.19884,-2.24146 0.19706,-4.73623 z m 5.00617,3.06342 c -0.12295,-0.12295 -0.21042,0.0956 -0.19436,0.48562 0.0178,0.43105 0.10545,0.51871 0.22356,0.22356 0.10689,-0.26711 0.0937,-0.58623 -0.0292,-0.70918 z m -1.09201,-2.25774 c -0.33722,-0.37263 -0.49299,-0.79768 -0.34614,-0.94454 0.14689,-0.14685 -0.0166,-0.1581 -0.36382,-0.0248 -0.56488,0.21675 -0.54434,0.31428 0.19628,0.93225 1.0615,0.88571 1.297,0.9028 0.51368,0.0372 z m -0.69387,-2.11844 c 0.45229,-0.31679 0.82233,-0.80438 0.82233,-1.08358 0,-0.79842 -1.07611,-1.67044 -2.06142,-1.67044 -0.81833,0 -0.89858,0.14874 -0.89858,1.665 0,1.85644 0.60328,2.16376 2.13767,1.08902 z m 1.81737,-1.92152 c -0.0931,-0.35612 -0.1692,-0.0648 -0.1692,0.6475 0,0.71225 0.0762,1.00363 0.1692,0.6475 0.0931,-0.35612 0.0931,-0.93887 0,-1.295 z m 9.73496,3.0525 0,-5.735 1.11,0 1.11,0 0,5.735 0,5.735 -1.11,0 -1.11,0 0,-5.735 z m 1.01506,-2.48129 c -0.0704,-1.48429 -0.1285,-0.36771 -0.12906,2.48129 0,2.849 0.057,4.06342 0.12802,2.69871 0.071,-1.36475 0.0715,-3.69575 0,-5.18 z m 10.08494,2.50586 0,-5.75957 1.08288,0 c 0.96851,0 1.32027,0.37944 3.33,3.59185 l 2.24712,3.59181 0,-3.61641 0,-3.61638 1.0175,0.11706 1.0175,0.11707 0,5.55 0,5.55 -1.08443,0 c -0.97044,0 -1.30921,-0.36522 -3.22293,-3.47474 l -2.13848,-3.47475 -0.10708,3.47475 -0.10708,3.47474 -1.0175,0.11707 -1.0175,0.11707 0,-5.75957 z m 1.53983,-3.94653 c 0.44315,-0.27391 0.10678,-1.07304 -0.45166,-1.07304 -0.20454,0 -0.31535,2.09886 -0.26862,5.0875 l 0.0796,5.0875 0.11784,-4.42583 c 0.0714,-2.68153 0.27746,-4.5245 0.52285,-4.67613 z m 6.23017,8.36196 c 0,-0.30525 -0.27014,-0.555 -0.60029,-0.555 -0.49165,0 -0.51696,0.10046 -0.13971,0.555 0.25334,0.30525 0.52348,0.555 0.60029,0.555 0.0769,0 0.13971,-0.24975 0.13971,-0.555 z m -0.0996,-8.05867 c -0.0776,-0.85873 -0.14016,-0.0628 -0.13901,1.76867 0,1.8315 0.0646,2.5341 0.14108,1.56133 0.0764,-0.97277 0.0756,-2.47127 -0.004,-3.33 z m 12.04602,8.75076 c -1.39853,-0.68957 -2.69638,-3.08924 -2.69638,-4.98549 0,-1.88815 1.43027,-4.40896 2.95423,-5.20672 2.43589,-1.27513 6.69374,-0.66245 6.10256,0.87809 -0.18397,0.47941 -0.69161,0.59507 -2.39335,0.54527 -1.82306,-0.0534 -2.30821,0.0758 -3.111,0.82843 -1.23235,1.15536 -1.54656,2.87464 -0.83608,4.57508 0.43845,1.04929 0.87001,1.42535 2.03718,1.77504 1.9375,0.58049 2.64646,0.27905 2.64646,-1.12517 0,-1.00522 -0.11784,-1.12162 -1.13575,-1.12162 -0.96615,0 -1.11807,-0.12428 -1.0175,-0.8325 0.10626,-0.7481 0.32456,-0.8325 2.15325,-0.8325 l 2.035,0 0.10878,2.68546 c 0.10519,2.59696 0.0769,2.6976 -0.85659,3.0525 -1.45177,0.55197 -4.6482,0.42613 -5.99081,-0.23587 z m 3.293,-0.38983 c -0.26711,-0.1069 -0.58623,-0.0938 -0.70918,0.0292 -0.12295,0.12295 0.0956,0.21041 0.48562,0.19436 0.43105,-0.0178 0.5187,-0.10545 0.22356,-0.22356 z m 2.41499,-3.36138 c -0.0844,-0.556 -0.15178,-0.0118 -0.14971,1.20912 0.004,1.221 0.0711,1.67588 0.15348,1.01088 0.0824,-0.66504 0.0807,-1.66404 -0.004,-2.22 z m -7.02934,-2.21338 c -0.0848,-0.55962 -0.15414,-0.10175 -0.15414,1.0175 0,1.11925 0.0693,1.57713 0.15414,1.0175 0.0848,-0.55962 0.0848,-1.47537 0,-2.035 z m 1.21497,-2.4975 c 0.25334,-0.30525 0.37736,-0.555 0.27561,-0.555 -0.10175,0 -0.39227,0.24975 -0.64561,0.555 -0.25334,0.30525 -0.37736,0.555 -0.27561,0.555 0.10175,0 0.39227,-0.24975 0.64561,-0.555 z m 3.76938,-1.54774 c -0.26711,-0.1069 -0.58623,-0.0938 -0.70918,0.0292 -0.12295,0.12295 0.0956,0.21041 0.48562,0.19436 0.43105,-0.0178 0.5187,-0.10545 0.22356,-0.22356 z M 446.96,392.89788 c -38.97025,-0.15517 -104.90425,-0.46301 -146.52,-0.68409 -41.61575,-0.22104 -88.90175,-0.42191 -105.08,-0.44637 -16.17825,-0.0244 -34.65975,-0.14704 -41.07,-0.27235 l -11.655,-0.22789 -0.11588,-1.61564 -0.11588,-1.61564 60.05588,0.24745 c 33.03073,0.13613 96.85238,0.40449 141.82588,0.59637 44.9735,0.19192 107.9105,0.43679 139.86,0.54416 31.9495,0.10741 65.45762,0.29437 74.4625,0.41547 l 16.3725,0.22019 0,1.6213 0,1.62134 -28.5825,-0.0611 c -15.72037,-0.0337 -60.46725,-0.18804 -99.4375,-0.34322 z m 127.28,-1.22092 c 0,-0.41166 -1.28294,-0.56063 -6.3825,-0.74111 -3.51038,-0.12425 -50.42175,-0.39912 -104.2475,-0.61084 -53.82575,-0.21171 -131.58125,-0.53738 -172.79,-0.72372 -66.37447,-0.3001 -102.8538,-0.40034 -136.9925,-0.37632 -8.52101,0.006 -10.2675,0.0948 -10.2675,0.5221 0,0.41285 1.33788,0.55919 6.7525,0.73849 3.71387,0.12295 53.78875,0.41347 111.2775,0.64557 57.48875,0.2321 129.74975,0.53499 160.58,0.67303 108.36597,0.48526 152.07,0.4487 152.07,-0.1272 z M 125.42594,376.60257 c -0.62892,-0.12902 -1.22366,-0.31476 -1.32164,-0.41274 -0.13802,-0.13805 -0.28,-33.8321 -0.1754,-41.62515 l 0.0211,-1.5725 5.34316,0 c 3.36752,0 5.43287,0.14515 5.58577,0.39254 0.13343,0.21589 0.22189,3.54524 0.19658,7.39855 -0.0373,5.67721 0.063,7.21681 0.52874,8.11746 0.31611,0.6113 0.7786,1.11649 1.02775,1.12265 0.24915,0.006 4.9485,0.001 10.443,-0.0109 9.47317,-0.0209 10.02828,-0.0603 10.73,-0.76051 0.67909,-0.67765 0.75523,-1.36964 0.925,-8.40662 l 0.185,-7.66818 5.55,0 5.55,0 0.10066,21.09 0.10067,21.09 1.42082,-3.515 c 1.24729,-3.0857 7.45654,-16.47513 14.97714,-32.29623 1.33368,-2.80568 2.77853,-5.5979 3.21077,-6.20492 l 0.78589,-1.10368 7.612,0.0999 7.612,0.0999 1.62871,3.145 c 2.80632,5.41894 16.40107,34.83909 17.33992,37.52496 0.49215,1.40799 0.79818,2.65674 0.68007,2.775 -0.41745,0.41799 -12.62178,0.48595 -13.39045,0.0745 -0.4094,-0.21908 -1.29698,-1.49809 -1.97241,-2.84223 -1.94623,-3.87308 -1.66527,-3.78176 -12.07513,-3.92461 -6.21092,-0.0852 -9.07248,-0.25549 -9.37436,-0.55778 -0.33278,-0.33322 0.11061,-1.56776 1.89362,-5.2725 l 2.32814,-4.8374 4.53321,0 c 2.49326,0 4.79658,-0.10106 5.11847,-0.22458 0.80347,-0.30832 0.73397,-1.00085 -0.24724,-2.46367 -0.45788,-0.68262 -1.58175,-3.01853 -2.4975,-5.19092 -0.91575,-2.17238 -1.77054,-3.95227 -1.89953,-3.95531 -0.12899,-0.003 -0.61665,0.95186 -1.08368,2.12198 -1.21519,3.04454 -3.47964,7.6564 -4.38063,8.92173 -0.96527,1.35558 -4.18643,8.55441 -4.82394,10.78077 -0.57635,2.0128 -2.71731,6.34225 -3.54621,7.17112 -0.49643,0.49643 -1.49621,0.59737 -5.84494,0.59004 -2.88534,-0.005 -5.87045,-0.15381 -6.63357,-0.331 -0.76313,-0.17723 -1.3875,-0.18648 -1.3875,-0.0207 0,0.16587 -0.49136,0.40955 -1.0919,0.54146 -1.50614,0.33078 -7.70974,0.34765 -9.1756,0.0248 l -1.2025,-0.26474 0,-6.46993 c 0,-3.7299 -0.16134,-6.77139 -0.38097,-7.18177 -0.88775,-1.65852 -1.98709,-1.82925 -11.78039,-1.82925 -5.08097,0 -9.50764,0.10343 -9.83706,0.22984 -1.40388,0.53872 -1.70027,2.08997 -1.6626,8.70201 0.0381,6.68112 -0.0242,6.93941 -1.68398,6.98885 -5.08783,0.15155 -6.99705,0.13708 -7.95906,-0.0603 z m 220.74041,-0.0796 -1.32635,-0.31428 0,-15.2976 0,-15.29761 -0.89216,-1.03814 -0.89215,-1.03813 -7.71035,-0.21818 c -4.24069,-0.12 -7.75196,-0.24488 -7.80284,-0.2775 -0.0509,-0.0326 -0.0925,-2.39157 -0.0925,-5.2421 l 0,-5.18278 23.2175,0.0953 23.2175,0.0953 0,4.97832 0,4.97832 -0.925,0.2573 c -0.50875,0.14152 -3.80539,0.2739 -7.32587,0.29418 -7.27812,0.0419 -8.24831,0.30322 -8.94311,2.40848 -0.29014,0.87915 -0.40024,5.77192 -0.35493,15.77374 0.07,15.4457 0.10709,15.11282 -1.69109,15.16469 -5.4364,0.15677 -7.36266,0.12513 -8.47865,-0.13927 z m 29.62171,0.005 -1.30614,-0.30932 -0.11344,-16.34069 c -0.0624,-8.98739 -0.0633,-18.79658 -0.004,-21.79821 l 0.11152,-5.4575 20.34286,0 c 22.55816,0 21.88365,-0.0687 23.95135,2.43981 2.07393,2.51601 2.34521,4.01796 2.21704,12.27433 l -0.11429,7.36199 -1.1147,1.80145 c -1.48085,2.39316 -3.04192,3.25734 -6.3792,3.53144 -1.47612,0.12123 -2.79676,0.3333 -2.9347,0.47125 -0.13793,0.13795 0.26019,0.78945 0.88471,1.44778 2.36537,2.49331 9.6503,11.44237 10.3065,12.66085 0.3767,0.69956 0.5675,1.38935 0.42394,1.53287 -0.4743,0.47431 -12.92683,0.77734 -14.32107,0.34851 -1.04473,-0.32135 -2.98793,-2.36116 -10.0711,-10.57173 -4.82539,-5.5953 -9.1114,-10.8394 -9.52269,-11.6534 -0.41129,-0.814 -1.09209,-1.9795 -1.51289,-2.59 l -0.76513,-1.11 0.0693,1.85 c 0.0381,1.0175 0.0478,6.79216 0.0215,12.83257 -0.0477,10.98233 -0.0477,10.98256 -0.86455,11.24182 -1.17974,0.37444 -7.76863,0.40015 -9.30513,0.0363 z m 32.68254,-27.2463 c 1.60776,-1.60778 1.21656,-4.3675 -0.76434,-5.39186 -1.36641,-0.70661 -18.25136,-0.78818 -19.77158,-0.0955 -1.4679,0.66882 -2.09413,2.18667 -1.80409,4.37296 l 0.24476,1.845 10.68231,0 c 10.14314,0 10.71923,-0.0369 11.41294,-0.73058 z M 81.4,376.23752 c -2.518054,-1.00114 -4.223291,-3.89724 -4.385344,-7.44784 l -0.0971,-2.1275 16.50304,0 16.503043,0 0.90818,-0.90818 c 0.4995,-0.4995 0.90818,-1.25702 0.90818,-1.68338 0,-1.23284 -1.00475,-2.84413 -1.92768,-3.09136 -0.46603,-0.12483 -6.75807,-0.2329 -13.98232,-0.24015 -11.945224,-0.012 -13.269058,-0.0747 -14.615,-0.6928 -1.818502,-0.83506 -2.526379,-1.60801 -3.510875,-3.83362 -0.689861,-1.55955 -0.765977,-2.47532 -0.783097,-9.42148 -0.02054,-8.33433 0.139505,-9.21257 2.104345,-11.54765 1.974446,-2.34649 1.362251,-2.2804 21.121687,-2.2804 l 17.98768,0 1.39119,0.92064 c 1.67284,1.10704 3.17682,3.99373 3.53104,6.77735 0.2392,1.8797 0.21625,1.9455 -0.81794,2.34523 -0.72477,0.28014 -5.74368,0.39515 -15.74076,0.36071 -15.670996,-0.054 -16.745169,0.0542 -17.668489,1.77944 -0.572271,1.0693 -0.493206,2.71761 0.176198,3.67332 l 0.575983,0.82233 13.021518,0.009 c 7.45094,0.005 13.71798,0.16959 14.64954,0.38434 2.33526,0.53832 3.54863,1.55288 4.71961,3.94627 0.96304,1.96839 1.03763,2.4679 1.17509,7.86895 0.21416,8.41544 -0.84388,12.25257 -3.85009,13.96279 -1.44889,0.82428 -1.49842,0.82639 -19.21263,0.80908 -10.857731,-0.0107 -18.119492,-0.16033 -18.685,-0.38514 z m 203.64662,-0.11422 c -0.63162,-0.27494 -1.51958,-1.02116 -1.97325,-1.6583 -1.09095,-1.53209 -2.24337,-4.87042 -2.24337,-6.49857 l 0,-1.30425 16.48182,0 16.48182,0 0.90818,-0.90818 c 0.4995,-0.4995 0.90818,-1.25702 0.90818,-1.68338 0,-1.23284 -1.00475,-2.84413 -1.92768,-3.09136 -0.46603,-0.12483 -6.75807,-0.2329 -13.98232,-0.24015 -11.94522,-0.012 -13.26906,-0.0747 -14.615,-0.6928 -1.8185,-0.83506 -2.52638,-1.60801 -3.51087,-3.83362 -0.68987,-1.55955 -0.76598,-2.47532 -0.7831,-9.42148 -0.0205,-8.33433 0.1395,-9.21257 2.10434,-11.54765 1.97445,-2.34649 1.36225,-2.2804 21.12169,-2.2804 l 17.98768,0 1.39119,0.92064 c 1.71945,1.13788 3.2053,4.04601 3.53539,6.9195 0.23582,2.05288 0.22659,2.07915 -0.82392,2.34707 -0.58432,0.14901 -7.66693,0.24737 -15.73913,0.21855 -15.6717,-0.0559 -16.74499,0.0521 -17.66849,1.77761 -0.57227,1.0693 -0.4932,2.71761 0.1762,3.67332 l 0.57598,0.82233 12.91081,0 c 14.95299,0 16.0656,0.13983 18.14264,2.28008 2.32806,2.3989 2.65047,3.97457 2.51043,12.26865 l -0.12084,7.1571 -1.12309,1.81515 c -0.65879,1.06475 -1.72953,2.15865 -2.59,2.64601 -1.46464,0.82954 -1.49435,0.83084 -19.22691,0.82244 -14.08882,-0.007 -17.99738,-0.11174 -18.90838,-0.50831 z m 198.72879,0.0355 c -0.50898,-0.1696 -0.93396,-0.58585 -0.94443,-0.925 -0.0104,-0.33917 -0.0373,-5.02892 -0.0598,-10.42167 -0.0384,-9.24286 0.004,-9.88986 0.72657,-11.285 1.02094,-1.96908 2.99163,-3.81318 4.55373,-4.26118 0.71788,-0.20588 6.73097,-0.36628 13.85103,-0.36949 6.92033,-0.003 12.78083,-0.13179 13.02326,-0.28595 0.96847,-0.61573 1.54271,-2.33556 1.1531,-3.45327 -0.76756,-2.20176 -0.56347,-2.17508 -16.63716,-2.17508 -9.05915,0 -15.07291,-0.14422 -15.68282,-0.3761 -0.96881,-0.36834 -0.98634,-0.43275 -0.85055,-3.12168 0.11769,-2.3311 0.30735,-2.98566 1.25637,-4.33593 0.61475,-0.87469 1.67728,-1.96743 2.36119,-2.42832 l 1.2435,-0.83797 17.43436,0 17.4344,0 1.29911,0.88276 c 0.7145,0.48552 1.76512,1.73898 2.3347,2.78548 l 1.03555,1.90272 -0.12128,9.02355 -0.12129,9.02355 -1.11511,1.58572 c -2.19661,3.12362 -1.95652,3.07674 -16.82989,3.28622 -7.22425,0.10175 -13.34431,0.32044 -13.60013,0.48596 -0.25582,0.16553 -0.71025,0.77497 -1.00984,1.3543 -0.76945,1.48794 -0.14929,3.15257 1.37204,3.6829 0.73837,0.2574 6.44939,0.39684 16.25313,0.39684 l 15.1148,0 0,2.23189 c 0,2.43226 -0.68757,4.48272 -1.96015,5.84573 -1.87109,2.00392 -1.46849,1.96629 -21.75792,2.03426 -10.35715,0.0348 -19.24759,-0.0756 -19.75652,-0.2452 z m 38.67869,-1.81917 c 1.35416,-0.68288 1.86705,-1.25849 2.8534,-3.20243 0.66137,-1.30343 1.2025,-2.75859 1.2025,-3.23367 l 0,-0.86379 -16.5575,-0.0963 -16.5575,-0.0963 -0.10689,-3.45977 c -0.069,-2.23294 0.0455,-3.64335 0.32282,-3.9775 0.3528,-0.42508 2.72246,-0.51931 13.24186,-0.52656 7.04672,-0.005 13.45823,-0.1587 14.24781,-0.34189 1.87749,-0.43557 4.11451,-2.64078 4.84064,-4.77183 0.80364,-2.35859 0.80826,-13.71559 0.007,-15.98803 -0.71662,-2.03103 -2.13738,-3.89578 -3.50849,-4.60481 -1.64302,-0.84964 -32.80313,-0.82477 -34.59941,0.0276 -1.9987,0.94845 -4.19276,4.72142 -4.23361,7.28026 l -0.0164,1.01752 15.88591,0 c 9.57808,0 16.26813,0.14531 16.84843,0.36596 0.95686,0.36379 0.96193,0.38726 0.85659,3.9775 l -0.10593,3.61154 -14.06,0.185 c -15.6143,0.20545 -15.43333,0.17677 -17.40206,2.75793 -1.78348,2.33825 -2.02294,3.96778 -2.02294,13.76588 l 0,9.00619 18.6066,0 c 18.5599,0 18.61074,-0.004 20.2575,-0.8325 z m 11.09711,1.70965 c -1.31642,-0.55352 -3.13686,-2.80434 -3.64398,-4.50549 -0.26148,-0.87715 -0.44552,-7.13159 -0.51378,-17.46166 -0.098,-14.82679 -0.054,-16.21162 0.55814,-17.575 0.95486,-2.1266 3.03156,-4.10718 4.82965,-4.60611 1.07981,-0.29962 6.4151,-0.39278 18.0264,-0.31474 l 16.49264,0.11085 1.34014,0.91864 c 1.50508,1.03171 2.58604,2.75147 3.21541,5.11566 0.28571,1.07327 0.43142,6.72046 0.44577,17.28001 0.0207,15.38332 0.006,15.71784 -0.78528,17.35194 -0.88319,1.82447 -3.0054,3.90901 -4.0067,3.93558 -0.34905,0.009 -8.35889,0.0509 -17.7997,0.0925 -12.07802,0.0532 -17.45952,-0.0482 -18.15871,-0.34218 z m 36.49954,-1.83105 c 0.57435,-0.42287 1.54375,-1.67162 2.15425,-2.775 l 1.11,-2.0061 0.11973,-14.245 c 0.13024,-15.49809 0.004,-16.91774 -1.77959,-19.72731 -1.94931,-3.07371 -1.5974,-3.01134 -17.76514,-3.1489 -7.83475,-0.0667 -15.27974,-0.0124 -16.5444,0.12055 -2.9072,0.30565 -4.31579,1.24886 -5.8029,3.88566 l -1.1477,2.035 0,15.355 0,15.355 1.11,2.22 c 0.69109,1.3822 1.59041,2.5382 2.38298,3.06311 l 1.27295,0.84312 16.9228,-0.10312 c 16.46955,-0.10034 16.95074,-0.12372 17.96702,-0.87201 z m -29.96897,-8.16766 c -0.13849,-0.13844 -0.25178,-5.71263 -0.25178,-12.38705 0,-11.61916 0.0303,-12.15161 0.71569,-12.51834 1.09812,-0.58771 21.90285,-0.51491 22.71419,0.0795 0.57653,0.42237 0.62278,1.52208 0.53321,12.6725 l -0.0981,12.21 -11.68072,0.0976 c -6.42442,0.0537 -11.79404,-0.0157 -11.9325,-0.15417 z m 22.32229,-2.07091 c 0.67654,-1.10965 0.73327,-1.88243 0.73456,-10.00837 0,-9.33109 -0.18152,-10.46692 -1.82813,-11.34816 -0.95531,-0.51127 -17.9557,-0.51127 -18.911,0 -1.64661,0.88124 -1.82957,2.01707 -1.82813,11.34816 0,8.12594 0.058,8.89872 0.73456,10.00837 l 0.73319,1.2025 9.81588,0 9.81588,0 0.73319,-1.2025 z m 21.3473,12.20464 c -0.66319,-0.22108 -1.0097,-0.60455 -1.02601,-1.13546 -0.0137,-0.44093 -0.004,-6.98455 0.0229,-14.54139 0.0387,-11.19693 -0.051,-13.9755 -0.48485,-15.01376 -0.59862,-1.43278 -1.70063,-1.99316 -4.43412,-2.25478 -0.97669,-0.0935 -1.8332,-0.23112 -1.90339,-0.30586 -0.13882,-0.14781 -0.33844,-7.52753 -0.25641,-9.47839 l 0.0505,-1.2025 8.8655,0 8.86546,0 0.10704,20.9975 c 0.0588,11.54863 0.0481,21.36095 -0.0237,21.80514 -0.072,0.44422 -0.40501,0.92185 -0.74,1.06142 -0.93884,0.39109 -7.91608,0.44363 -9.04277,0.0681 z m 8.98863,-21.91714 0,-20.905 -8.14,0 -8.14,0 0,4.22555 0,4.22555 2.3125,0.21427 c 1.27187,0.11784 2.812,0.25597 3.4225,0.30694 l 1.11,0.0927 0.0964,16.3725 0.0964,16.3725 4.62115,0 4.62115,0 0,-20.905 z m 33.65627,21.77169 -1.09627,-0.46098 0,-7.06466 c 0,-9.66702 1.33466,-8.73563 -12.82372,-8.94905 -12.82398,-0.19331 -13.13108,-0.26343 -15.11128,-3.45054 l -1.11,-1.78654 -0.10808,-11.03746 -0.10804,-11.03746 5.56554,0 5.56558,0 0.049,1.2025 c 0.027,0.66138 0.0178,3.61675 -0.0204,6.5675 -0.0626,4.83166 0.006,5.48455 0.68557,6.5675 l 0.75502,1.2025 7.73015,0 c 6.73204,0 7.79568,-0.0788 8.23794,-0.61056 0.3754,-0.45139 0.55604,-2.45293 0.69279,-7.6775 l 0.185,-7.06694 5.6425,-0.10214 5.6425,-0.10213 0,21.8147 0,21.8147 -0.8325,0.27302 c -1.43479,0.47057 -8.35919,0.40052 -9.54123,-0.0965 z m 9.40914,-1.45195 c 0.29741,-0.77501 0.29112,-38.94967 -0.007,-40.43849 l -0.23125,-1.15625 -4.57139,0 -4.57138,0 -0.0999,7.8625 -0.0999,7.8625 -9.805,0 -9.805,0 -0.185,-7.77 -0.185,-7.77 -4.7175,-0.10355 -4.7175,-0.10355 0,8.90029 c 0,10.07669 0.36634,12.01083 2.72102,14.36548 1.65223,1.65226 3.66067,1.88882 16.16748,1.90423 7.13308,0.009 9.94508,0.1337 10.2675,0.4561 0.31816,0.31818 0.444,2.72978 0.444,8.51 l 0,8.066 4.58541,0 c 3.83997,0 4.62193,-0.0951 4.81,-0.58526 z M 227.365,376.01834 c -0.407,-0.0979 -0.86673,-0.29689 -1.02161,-0.44219 -0.59603,-0.55915 0.56013,-3.1369 16.48497,-36.75455 1.13219,-2.39008 2.41481,-4.84595 2.85028,-5.4575 l 0.79175,-1.11192 7.52326,0 7.52326,0 0.8273,1.3875 c 1.09162,1.83079 13.78189,29.05875 16.90087,36.2621 1.34422,3.10453 2.32024,5.76853 2.16893,5.92001 -0.45975,0.46021 -12.61519,0.58212 -13.45081,0.1349 -0.4094,-0.21907 -1.29698,-1.49809 -1.97241,-2.84223 -1.94623,-3.87307 -1.66527,-3.78176 -12.07513,-3.9246 -6.21092,-0.0852 -9.07248,-0.2555 -9.37436,-0.55778 -0.33278,-0.33323 0.11061,-1.56776 1.89362,-5.2725 l 2.32814,-4.8374 4.53321,0 c 2.49326,0 4.79658,-0.10106 5.11847,-0.22458 0.80347,-0.30832 0.73397,-1.00085 -0.24724,-2.46367 -0.45787,-0.68262 -1.58175,-3.01853 -2.4975,-5.19092 -0.91575,-2.17238 -1.77054,-3.95227 -1.89953,-3.95531 -0.12899,-0.003 -0.61665,0.95186 -1.08368,2.12198 -1.21519,3.04454 -3.47964,7.6564 -4.38063,8.92173 -0.96527,1.35558 -4.18643,8.55441 -4.82394,10.78077 -0.57635,2.0128 -2.71731,6.34225 -3.54621,7.17112 -0.50336,0.50339 -1.49453,0.59204 -6.21494,0.55596 -3.08884,-0.0237 -5.94907,-0.12302 -6.35607,-0.22092 z m 196.47,0 c -0.407,-0.0979 -0.86673,-0.29686 -1.02161,-0.44219 -0.51123,-0.4796 1.03415,-4.12998 7.76793,-18.34897 3.66219,-7.733 7.58485,-16.01551 8.71705,-18.40558 1.13217,-2.39008 2.41718,-4.84929 2.85555,-5.46492 l 0.79702,-1.11933 7.63203,0.0999 7.63202,0.0999 1.77315,3.515 c 2.69697,5.34638 17.15346,36.6199 17.67094,38.22729 0.25009,0.77678 0.34107,1.52603 0.20225,1.665 -0.44386,0.44434 -12.61752,0.54609 -13.42812,0.11222 -0.4094,-0.21907 -1.297,-1.49809 -1.97243,-2.84223 -1.9462,-3.87307 -1.66526,-3.78176 -12.0751,-3.9246 -6.21093,-0.0852 -9.07251,-0.2555 -9.37439,-0.55778 -0.33278,-0.33323 0.11063,-1.56776 1.89362,-5.2725 l 2.32815,-4.8374 4.5332,0 c 2.49329,0 4.79657,-0.10106 5.11847,-0.22458 0.80346,-0.30832 0.73397,-1.00085 -0.24723,-2.46367 -0.45788,-0.68262 -1.58175,-3.01853 -2.4975,-5.19092 -0.91575,-2.17238 -1.77052,-3.95227 -1.89954,-3.95531 -0.12899,-0.003 -0.61665,0.95186 -1.08366,2.12198 -1.21519,3.04454 -3.47966,7.6564 -4.38065,8.92173 -0.96526,1.35558 -4.18644,8.55441 -4.82391,10.78077 -0.57635,2.0128 -2.71732,6.34225 -3.54623,7.17112 -0.50335,0.50339 -1.49454,0.59204 -6.21493,0.55596 -3.08883,-0.0237 -5.94908,-0.12302 -6.35608,-0.22092 z m 41.48943,-54.87748 c -1.5927,-0.47713 -3.7649,-2.10664 -4.31849,-3.23957 -1.25008,-2.55849 -2.03078,-5.29936 -2.41059,-8.46343 -0.2691,-2.24171 -0.53535,-2.55064 -0.53535,-0.62113 0,1.86219 -1.60513,5.89698 -2.90006,7.28989 -1.92552,2.07119 -3.74088,2.93576 -6.53224,3.111 -4.40218,0.27637 -7.9826,-1.21261 -18.58713,-7.72986 -2.19207,-1.34718 -4.73482,-2.8682 -5.65057,-3.38005 -0.91575,-0.51184 -7.4925,-4.38918 -14.615,-8.61631 -7.1225,-4.22713 -16.7795,-9.92863 -21.46,-12.66998 -10.85524,-6.35787 -13.66251,-8.33648 -17.76,-12.51746 -5.32746,-5.43603 -8.80056,-11.99648 -10.37698,-19.60142 -0.73653,-3.55315 -0.84222,-5.69233 -1.01285,-20.50036 -0.0809,-7.02075 -0.0466,-10.434 0.0763,-7.585 0.12352,2.86383 0.32202,-7.55893 0.44393,-23.31 0.24059,-31.08122 0.29085,-31.83431 2.38186,-35.68481 0.81806,-1.50641 1.6381,-2.36253 3.30772,-3.45324 2.18711,-1.42876 2.26111,-1.44751 4.995,-1.26515 1.55833,0.10394 3.66722,0.53743 4.81,0.9887 l 2.035,0.8036 -2.11481,-2.12176 c -2.35405,-2.36176 -3.39057,-4.2533 -3.91656,-7.14736 -0.31587,-1.73793 -0.25785,-2.12413 0.54627,-3.63652 0.49484,-0.93064 1.47493,-2.3641 2.17797,-3.18546 1.33736,-1.56241 5.71313,-4.98278 7.93213,-6.20024 0.71225,-0.39078 1.54475,-0.86666 1.85,-1.0575 0.45451,-0.28418 7.71313,-4.42819 10.545,-6.02026 1.61468,-0.90777 7.89565,-4.52667 9.99,-5.75592 1.221,-0.71666 4.58708,-2.651 7.48014,-4.29855 2.89307,-1.64754 8.30432,-4.74335 12.025,-6.87958 3.72069,-2.13623 7.09786,-4.06946 7.50486,-4.29607 0.407,-0.22661 1.82225,-1.03578 3.145,-1.79816 1.32275,-0.76238 3.737,-2.0125 5.365,-2.77804 8.64231,-4.06389 11.36807,-4.62794 21.0537,-4.35666 6.42783,0.18003 6.85307,0.23978 10.60679,1.49039 3.90706,1.30171 8.75853,3.5606 13.29451,6.19003 1.32275,0.76679 3.071,1.76576 3.885,2.21994 3.01554,1.68257 13.5928,7.66658 22.57,12.76881 5.0875,2.89149 12.7465,7.21641 17.02,9.61092 10.41335,5.83476 13.77795,7.82796 15.53963,9.20571 6.21152,4.8579 6.55411,10.70783 0.96396,16.46065 -1.34399,1.38309 -2.85984,2.79008 -3.36859,3.12665 l -0.925,0.61193 1.11,-0.40084 c 1.2647,-0.4567 5.34117,-1.10923 7.09938,-1.1364 1.51278,-0.0234 4.20338,1.27972 5.60735,2.71574 0.60395,0.61772 1.56894,2.39329 2.14958,3.95519 l 1.05369,2.83426 -0.07,24.05 c -0.0385,13.2275 -0.0876,30.12725 -0.10926,37.555 -0.0459,15.773 -0.49036,20.66819 -2.30132,25.345 -1.17942,3.04586 -3.55152,7.75693 -4.77944,9.49212 -0.38225,0.54016 -0.69501,1.13214 -0.69501,1.31551 0,0.75067 -4.14574,5.28376 -6.87919,7.52192 -3.25859,2.66817 -6.30939,4.7279 -11.80581,7.97069 -5.44422,3.21199 -5.75331,3.38942 -7.75191,4.45028 -1.00758,0.5348 -2.25633,1.26234 -2.775,1.61675 -0.5187,0.35441 -2.10859,1.31219 -3.53309,2.12839 -4.56917,2.61803 -9.94186,5.73393 -11.655,6.75934 -0.91575,0.54813 -3.33,1.95741 -5.365,3.13174 -2.035,1.17433 -4.61575,2.66839 -5.735,3.32013 -1.11925,0.65175 -3.2005,1.85982 -4.625,2.68461 -1.4245,0.82478 -4.44659,2.58971 -6.71576,3.92206 -4.31475,2.53341 -8.1689,4.35102 -10.67424,5.03392 -1.72305,0.46966 -5.0858,0.483 -6.61057,0.0262 z m 9.06637,-2.22718 c 2.62012,-1.14634 3.64176,-1.69925 11.4192,-6.1802 1.93325,-1.11384 4.09775,-2.35737 4.81,-2.76339 0.71225,-0.40603 2.21075,-1.28701 3.33,-1.95773 2.46376,-1.47644 23.00405,-13.37917 24.15675,-13.99841 0.45003,-0.24177 1.2345,-0.70289 1.74325,-1.02471 2.26296,-1.43148 9.31471,-5.50706 9.52857,-5.50706 0.13017,0 0.82836,-0.39017 1.55152,-0.86706 0.72321,-0.47688 3.22966,-2.1299 5.56991,-3.67339 6.86827,-4.52986 10.71575,-8.64904 14.2484,-15.25455 0.76183,-1.4245 1.50235,-2.7565 1.64558,-2.96 0.79428,-1.1286 2.62156,-7.07034 2.95848,-9.62 0.68195,-5.16082 0.7158,-6.67227 0.96518,-43.09338 l 0.24454,-35.71662 -1.15629,-3.31166 c -1.28512,-3.68079 -2.01206,-4.65018 -4.32782,-5.77122 -1.85059,-0.89584 -2.07795,-0.91287 -5.624,-0.42124 -3.2251,0.44714 -6.14936,1.77173 -13.26679,6.00937 -2.81725,1.67738 -6.28778,3.71811 -7.71228,4.53498 -1.4245,0.81686 -3.33925,1.93626 -4.255,2.48756 -0.91575,0.55129 -8.4915,4.95914 -16.835,9.79522 -8.3435,4.83608 -15.96339,9.26967 -16.93305,9.85243 -0.9697,0.58276 -1.85544,1.05956 -1.96833,1.05956 -0.11292,0 -0.93129,0.4995 -1.81862,1.11 -0.88733,0.6105 -1.71654,1.11 -1.84267,1.11 -0.32535,0 -5.61842,3.6353 -7.54212,5.18 -2.38128,1.91208 -6.56517,6.85276 -8.27405,9.77066 -1.52881,2.61044 -3.03685,6.04301 -3.67251,8.35934 -0.19544,0.71225 -0.51863,1.87775 -0.71813,2.59 -1.36616,4.87679 -1.40319,6.23017 -1.19991,43.845 0.21437,39.66991 0.2204,39.78737 2.251,43.845 0.80756,1.61372 1.40138,2.24925 2.86839,3.06993 1.66519,0.93152 2.11385,1.01786 4.4908,0.86418 1.8873,-0.12202 3.41806,-0.51081 5.365,-1.36261 z m 46.5046,-49.23599 c -2.96492,-1.76435 -4.25286,-6.76676 -3.11048,-12.08127 1.86313,-8.66762 8.41232,-15.99424 14.2971,-15.99424 5.43988,0 7.67716,4.02989 6.69126,12.05254 -0.23728,1.93081 -0.57861,3.79673 -0.75846,4.14651 -0.1799,0.34977 -0.88567,1.80145 -1.56843,3.22595 -1.43072,2.98504 -5.51807,7.39006 -7.90139,8.51546 -0.82732,0.39066 -2.54061,0.75294 -3.885,0.82149 -1.95675,0.0998 -2.65841,-0.0282 -3.7646,-0.68644 z m 6.95814,-1.11444 c 2.94524,-1.37677 6.89222,-6.10434 8.58626,-10.28442 1.61091,-3.97493 1.9149,-10.10321 0.62419,-12.58314 -1.95001,-3.74661 -6.40718,-3.93587 -10.80396,-0.45878 -2.67836,2.11811 -6.00725,7.35949 -7.09127,11.16527 -1.21997,4.28314 -0.88589,8.59147 0.84226,10.8623 1.89781,2.49377 4.39975,2.9081 7.84252,1.29877 z m -39.44592,-17.384 c -2.49716,-0.99634 -3.74543,-3.43071 -3.99393,-7.78903 -0.26958,-4.72815 0.88072,-8.70393 3.84897,-13.30321 4.5019,-6.97567 11.76478,-9.51484 15.56719,-5.44243 1.47675,1.58161 1.9603,3.36788 1.95808,7.23322 -0.004,4.48081 -0.40456,6.02524 -2.90458,11.15846 -1.07651,2.21035 -5.46623,6.58732 -7.63595,7.61376 -2.11728,1.00163 -5.08106,1.23095 -6.83978,0.52923 z m 6.68698,-1.67662 c 2.39808,-1.30519 5.79712,-4.98975 7.1478,-7.7482 1.97651,-4.03656 2.4376,-5.92046 2.4376,-9.95949 0,-3.54565 -0.0641,-3.86682 -1.07059,-5.36547 -1.32745,-1.97654 -2.34536,-2.55966 -4.47941,-2.56605 -4.38835,-0.0131 -9.70088,4.96738 -12.40932,11.63376 -0.86558,2.13056 -1.0794,3.28469 -1.20531,6.50613 -0.13198,3.37745 -0.0513,4.11542 0.58641,5.365 1.81234,3.55098 4.99996,4.30752 8.99282,2.13432 z m -43.12706,67.49162 c 2.24087,-1.43264 3.33714,-2.82711 4.29408,-5.46207 l 0.87338,-2.405 -0.005,-37.555 c -0.004,-33.83382 -0.0686,-37.96993 -0.6492,-41.74262 -0.71643,-4.65533 -2.20032,-8.70193 -4.97698,-13.57238 -1.76734,-3.10003 -4.89299,-7.585 -5.28612,-7.585 -0.12617,0 -1.34417,-1.07174 -2.70666,-2.38164 -1.36249,-1.30991 -3.7663,-3.28238 -5.34176,-4.38327 -2.32094,-1.62182 -11.45136,-7.19678 -14.70447,-8.97842 -0.407,-0.22291 -2.405,-1.41144 -4.44,-2.6412 -2.035,-1.22975 -8.1955,-4.86182 -13.69,-8.07127 -5.4945,-3.20945 -13.4865,-7.91846 -17.76,-10.46447 -7.10163,-4.23093 -9.86561,-5.69308 -13.505,-7.14417 -0.71225,-0.28399 -2.46524,-0.51729 -3.89554,-0.51845 -2.39258,-0.002 -2.74771,0.10346 -4.44002,1.31773 -2.69114,1.93094 -3.75968,4.25345 -4.41456,9.59516 -0.62854,5.12682 -1.09766,72.68974 -0.53048,76.39962 1.31385,8.59386 4.7844,16.09616 9.90261,21.40656 2.20738,2.29026 6.28231,5.71366 8.74299,7.3451 1.22866,0.8146 21.37686,12.713 25.715,15.18581 0.71225,0.406 4.292,2.5262 7.955,4.71156 3.663,2.18537 8.74125,5.18796 11.285,6.67244 6.25396,3.64967 10.06193,5.95807 10.73,6.50455 0.88748,0.72594 6.28885,3.39884 8.51,4.2112 2.82458,1.03307 6.31742,0.84674 8.33754,-0.44477 z m -29.84109,-27.4108 c -6.47833,-2.42191 -11.94578,-11.25385 -11.95163,-19.30627 -0.004,-3.62891 0.57713,-5.71702 2.05454,-7.39969 1.95027,-2.22122 5.21659,-2.56769 8.88958,-0.94295 1.62171,0.71736 6.97106,5.87595 6.97106,6.72248 0,0.18693 0.39705,0.96884 0.88234,1.73757 1.28075,2.02887 2.44881,6.44229 2.66182,10.05759 0.15965,2.70909 0.0679,3.42224 -0.66193,5.14524 -1.15448,2.72559 -2.90288,4.09514 -5.51097,4.31679 -1.18951,0.1011 -2.5372,-0.0326 -3.33481,-0.33076 z m 5.89862,-1.62145 c 0.54445,-0.40343 1.36944,-1.63381 1.83331,-2.73416 1.5866,-3.76363 0.5463,-10.17724 -2.4561,-15.14272 -1.65238,-2.73276 -4.86875,-6.05605 -6.89728,-7.12657 -2.13434,-1.12637 -5.16723,-1.08796 -6.74688,0.0854 -3.41199,2.53448 -3.40799,9.91626 0.009,16.8532 3.42728,6.95762 10.41661,10.91106 14.25784,8.06482 z m -36.4907,-61.52797 c -3.87501,-1.75865 -6.66411,-4.68865 -9.09741,-9.55699 -1.65498,-3.31114 -2.23795,-5.881 -2.23902,-9.86986 0,-4.21701 0.83694,-6.30169 3.14822,-7.83122 4.84622,-3.20708 12.32218,1.1949 16.12763,9.49622 1.68831,3.68293 2.13087,5.64395 2.12932,9.435 0,3.98552 -0.57265,5.7406 -2.42961,7.46786 -1.86883,1.73833 -4.94054,2.08373 -7.63913,0.85899 z m 6.60406,-1.31305 c 4.7596,-4.30454 2.3374,-16.37349 -4.52422,-22.54268 -4.55947,-4.09935 -8.48813,-4.42099 -11.1098,-0.90956 -1.98176,2.65437 -1.70996,9.41482 0.57169,14.21935 2.25111,4.74014 4.72786,7.51096 8.5689,9.58629 1.55966,0.84269 5.40215,0.63356 6.49343,-0.3534 z m 60.19629,59.3087 c -0.0702,-1.47537 -0.12768,-0.26825 -0.12768,2.6825 0,2.95075 0.0575,4.15788 0.12768,2.6825 0.0702,-1.47537 0.0702,-3.88962 0,-5.365 z m -0.009,-6.09991 c -0.0851,-0.56242 -0.15691,-0.19009 -0.15969,0.82741 -0.004,1.0175 0.0668,1.47767 0.15463,1.02259 0.0878,-0.45508 0.0901,-1.28758 0.005,-1.85 z m -0.0419,-2.21738 c -0.12295,-0.12295 -0.21042,0.0956 -0.19436,0.48562 0.0178,0.43104 0.10545,0.51871 0.22355,0.22355 0.10689,-0.26709 0.0938,-0.58622 -0.0292,-0.70917 z m 0.0215,-5.37271 c -0.10264,-0.25437 -0.18663,-0.0463 -0.18663,0.4625 0,0.50875 0.084,0.71688 0.18663,0.4625 0.10263,-0.25437 0.10263,-0.67062 0,-0.925 z m 0.0226,-15.54 c -0.0821,-0.66137 -0.14922,-0.12025 -0.14922,1.2025 0,1.32275 0.0671,1.86388 0.14922,1.2025 0.0821,-0.66137 0.0821,-1.74362 0,-2.405 z m -0.0441,-2.39729 c -0.12295,-0.12295 -0.21042,0.0956 -0.19436,0.48562 0.0178,0.43104 0.10545,0.51871 0.22356,0.22355 0.10689,-0.26709 0.0937,-0.58622 -0.0292,-0.70917 z m 0.0408,-4.82433 c -0.0844,-0.55598 -0.15177,-0.0119 -0.1497,1.20912 0.004,1.221 0.0711,1.6759 0.15348,1.01088 0.0824,-0.66502 0.0807,-1.66402 -0.004,-2.22 z m -0.0408,-4.05567 c -0.12295,-0.12295 -0.21042,0.0956 -0.19436,0.48562 0.0178,0.43104 0.10545,0.51871 0.22356,0.22355 0.10689,-0.26709 0.0937,-0.58622 -0.0292,-0.70917 z m 1.35709,-16.01021 c 2.73052,-10.50787 7.8144,-17.5694 17.39969,-24.16839 1.3834,-0.95238 2.59381,-1.73161 2.68987,-1.73161 0.096,0 0.84815,-0.42519 1.6714,-0.94487 0.82321,-0.51968 2.11029,-1.28754 2.86013,-1.70634 9.40233,-5.2514 22.94948,-13.25879 22.43162,-13.25879 -0.20272,0 -0.697,0.22647 -1.09841,0.50327 -0.40142,0.27679 -4.14308,2.46878 -8.31483,4.87109 -9.88784,5.69392 -11.65507,6.71378 -13.875,8.0071 -5.26173,3.06549 -11.52887,5.58589 -16.03506,6.44869 -4.00643,0.76712 -10.51111,0.66609 -14.91648,-0.23167 -4.31856,-0.88007 -7.23427,-1.92569 -11.79819,-4.23102 -1.82339,-0.92104 -3.31527,-1.6077 -3.31527,-1.52591 0,0.0818 0.79087,0.66752 1.7575,1.30161 1.64717,1.08051 5.76734,4.65053 8.42967,7.30413 2.54738,2.53903 7.43205,11.12305 8.80745,15.47771 0.7276,2.30367 1.70655,8.93451 1.78229,12.07249 0.0513,2.126 0.0841,2.01233 0.33359,-1.15749 0.15214,-1.93325 0.68768,-5.09675 1.19003,-7.03 z m 6.79261,-22.94373 c 5.02478,-0.81557 10.78986,-3.21721 18.63686,-7.7638 10.13071,-5.86979 19.50166,-11.26286 20.905,-12.03101 0.814,-0.44557 2.479,-1.39137 3.7,-2.10179 8.16845,-4.75265 11.38686,-6.58967 11.54489,-6.58967 0.0995,0 0.62282,-0.3092 1.16298,-0.68711 0.54017,-0.3779 1.81463,-1.15485 2.83213,-1.72655 1.0175,-0.57169 4.28874,-2.40519 7.26943,-4.07443 9.78986,-5.48252 12.36784,-7.66903 14.32688,-12.15144 0.95134,-2.17666 0.98013,-3.05877 0.16727,-5.12548 -1.46919,-3.73552 -3.18958,-5.07821 -15.28858,-11.93194 -4.57875,-2.59373 -9.57375,-5.42501 -11.1,-6.29173 -1.52625,-0.86672 -4.68975,-2.6551 -7.03,-3.97416 -9.05309,-5.10271 -22.37816,-12.65958 -28.305,-16.05225 -5.70159,-3.26371 -12.05619,-6.20867 -15.54,-7.20179 -2.60421,-0.74237 -3.82728,-0.84706 -10.175,-0.87096 -7.39926,-0.0279 -11.39504,0.50048 -13.97864,1.84828 -0.55348,0.28875 -1.11773,0.52603 -1.25382,0.52728 -0.39508,0.004 -6.95248,3.22566 -9.23756,4.53897 -1.14678,0.65907 -3.14478,1.79939 -4.44,2.53404 -1.29526,0.73465 -2.93773,1.67167 -3.64998,2.08225 -4.43082,2.5542 -6.25344,3.60194 -7.4,4.25398 -0.71225,0.40505 -2.37725,1.36492 -3.7,2.13304 -2.89233,1.67957 -4.48077,2.58515 -8.14,4.64055 -1.52625,0.8573 -4.19025,2.38209 -5.92,3.38841 -1.72975,1.00632 -3.478,2.01531 -3.885,2.24221 -0.407,0.22689 -2.405,1.40133 -4.44,2.60985 -2.035,1.20853 -4.366,2.55435 -5.18,2.99073 -8.79349,4.71411 -12.21529,7.31968 -15.06781,11.47355 -0.78928,1.14939 -1.16058,2.12242 -1.14677,3.00532 0.0337,2.16184 1.74684,5.22307 4.15547,7.42595 3.10433,2.83915 3.42028,3.04997 12.24411,8.16984 11.41076,6.62087 30.45829,17.57994 32.69113,18.80895 1.04713,0.57636 4.98412,2.90394 8.74887,5.17239 11.2877,6.8014 16.46789,9.08687 24.605,10.85556 1.47256,0.32008 9.67332,0.23245 11.88814,-0.12704 z m -45.3273,-42.97509 c -4.44144,-0.63536 -9.17459,-2.8701 -10.73803,-5.06993 -1.84064,-2.58983 -1.65286,-6.42888 0.4305,-8.80168 0.62397,-0.71065 2.23073,-1.8433 3.57057,-2.51699 9.12084,-4.586 23.33531,-1.54459 25.20329,5.39264 1.40341,5.21191 -2.85059,9.43257 -10.92717,10.84151 -3.65786,0.6381 -4.09557,0.64707 -7.53916,0.15445 z m 10.2453,-1.79542 c 2.82495,-0.89198 5.67088,-2.80315 6.76312,-4.54175 1.16983,-1.86215 0.82895,-4.61049 -0.80275,-6.47277 -3.51652,-4.01339 -12.32244,-5.87031 -18.86867,-3.97887 -4.32774,1.25046 -7.83168,4.05765 -8.32111,6.66652 -0.39302,2.09498 0.68502,4.42929 2.74621,5.94655 1.99967,1.47197 5.01376,2.71076 7.63706,3.13884 2.90709,0.47438 8.08924,0.11197 10.84614,-0.75852 z m 58.34386,1.97278 c -7.8507,-1.75706 -12.19761,-6.08532 -10.91082,-10.86403 1.84815,-6.86351 16.08209,-10.12794 24.83433,-5.69555 2.93328,1.48551 4.26465,2.62543 5.11288,4.37757 3.17526,6.55929 -4.02038,12.52981 -14.93309,12.39055 -1.84982,-0.0236 -3.6963,-0.11745 -4.1033,-0.20854 z m 9.62,-1.26775 c 5.60354,-1.38734 9.065,-4.36604 9.065,-7.80077 0,-4.9445 -7.69815,-8.93137 -16.07187,-8.32363 -9.08025,0.65901 -15.15454,6.25269 -11.95141,11.00579 3.11051,4.6157 11.66295,6.9248 18.95828,5.11861 z m 10.71982,23.47747 c 0.40142,-0.27404 0.60621,-0.49826 0.45514,-0.49826 -0.40367,0 -3.21996,1.82115 -3.21996,2.0822 0,0.20477 0.90028,-0.311 2.76482,-1.58394 z m 8.30436,-4.82627 c 0.0848,-0.0616 -0.0218,-0.11199 -0.23651,-0.11199 -0.21489,0 -0.78377,0.34289 -1.26417,0.76196 l -0.8735,0.76196 1.11,-0.64997 c 0.6105,-0.35749 1.17937,-0.70037 1.26418,-0.76196 z m 2.43582,-1.40029 c 0.74,-0.60252 0.74,-0.60252 0,-0.23922 -0.407,0.19981 -1.073,0.63444 -1.48,0.96582 -0.74,0.60252 -0.74,0.60252 0,0.23923 0.407,-0.19982 1.073,-0.63444 1.48,-0.96583 z m 1.84737,-0.92746 c 0.12965,-0.20974 -0.0189,-0.27177 -0.34817,-0.14541 -0.64099,0.24597 -0.75824,0.51117 -0.22603,0.51117 0.19147,0 0.44988,-0.16459 0.5742,-0.36576 z m 2.03763,-1.32527 c 0,-0.10175 -0.333,-0.007 -0.74,0.21103 -0.407,0.21782 -0.74,0.47929 -0.74,0.58104 0,0.10175 0.333,0.007 0.74,-0.21104 0.407,-0.21782 0.74,-0.47928 0.74,-0.58103 z m 5.0048,-3.04751 c -0.11392,-0.11392 -0.41247,-2.4e-4 -0.66348,0.25263 -0.36267,0.36542 -0.3202,0.40792 0.20713,0.20713 0.36489,-0.13895 0.57024,-0.34584 0.45635,-0.45976 z m 10.34757,-5.61722 c 0.12965,-0.20974 -0.0189,-0.27177 -0.34817,-0.14541 -0.64099,0.24597 -0.75824,0.51117 -0.22603,0.51117 0.19147,0 0.44988,-0.16459 0.5742,-0.36576 z m -295.4737,153.57995 c -2.18523,-0.70258 -7.31066,-3.2104 -10.36774,-5.07284 -1.79952,-1.0963 -3.81727,-2.30578 -4.48389,-2.68774 -1.39346,-0.79841 -22.76211,-13.38993 -25.81704,-15.21274 -1.11925,-0.66784 -2.5345,-1.5042 -3.145,-1.85858 -5.81237,-3.37398 -18.99508,-11.25481 -20.73841,-12.39774 -4.91735,-3.22381 -8.86276,-6.90663 -12.07845,-11.27455 -1.73702,-2.35942 -5.17502,-9.30133 -6.25187,-12.62358 -1.7614,-5.43424 -1.86406,-8.30879 -1.74271,-48.79642 l 0.11144,-37.185 1.24183,-3.03364 c 1.01705,-2.48454 1.54781,-3.27204 2.93232,-4.3507 0.92977,-0.72437 2.31024,-1.48392 3.06773,-1.68789 1.70481,-0.45906 5.79471,0.0669 8.56368,1.10129 l 1.95444,0.73011 -1.10618,-0.81959 c -3.4963,-2.59044 -4.21505,-3.28521 -5.63218,-5.44435 -1.71928,-2.61947 -2.4183,-5.06868 -2.06609,-7.2391 0.22477,-1.38512 2.5297,-5.71113 3.04292,-5.71113 0.14135,0 0.57977,-0.29632 0.97426,-0.65849 1.35815,-1.24685 8.23149,-5.63151 8.82789,-5.63151 0.126,0 0.85015,-0.3906 1.60923,-0.86801 0.75908,-0.47741 2.4624,-1.44785 3.78515,-2.15655 1.32275,-0.70869 6.068,-3.3348 10.545,-5.83581 4.477,-2.501 8.8532,-4.94361 9.72488,-5.42803 0.87168,-0.48442 1.95393,-1.10976 2.405,-1.38964 0.45107,-0.27989 1.90237,-1.08688 3.22512,-1.79333 1.32275,-0.70644 3.071,-1.66423 3.885,-2.12842 0.814,-0.46419 2.812,-1.57956 4.44,-2.47861 1.628,-0.89905 3.20975,-1.78714 3.515,-1.97354 0.30525,-0.18639 1.80375,-1.03136 3.33,-1.87769 1.52625,-0.84634 3.69075,-2.04726 4.81,-2.66872 10.62149,-5.89754 16.53973,-7.67035 25.53,-7.64756 10.28307,0.0261 14.83982,1.69572 31.86225,11.67468 4.75901,2.78985 16.81125,9.81185 26.78275,15.60446 9.9715,5.79261 19.21225,11.2362 20.535,12.09687 3.09467,2.01361 5.5258,4.30593 7.27528,6.8599 1.19277,1.74126 1.39496,2.32905 1.40069,4.07211 0.009,2.59272 -1.64749,5.70707 -4.37376,8.22539 l -1.89721,1.7525 2.035,-0.7514 c 1.11925,-0.41328 3.14675,-0.85041 4.50555,-0.97141 2.1008,-0.18707 2.70993,-0.0967 4.07,0.6037 3.42212,1.76236 5.36911,4.55218 6.21059,8.89911 0.63783,3.29489 0.61596,78.14125 -0.0238,81.53834 -1.5348,8.14936 -5.02075,14.60836 -11.21732,20.78417 -3.03612,3.02594 -8.84474,7.56749 -9.6788,7.56749 -0.10546,0 -1.10273,0.58275 -2.21616,1.295 -1.11342,0.71225 -2.09638,1.295 -2.18435,1.295 -0.088,0 -2.45736,1.35202 -5.26532,3.00447 -2.80795,1.65246 -5.68812,3.33623 -6.40037,3.74171 -0.71225,0.40548 -2.37725,1.3657 -3.7,2.13382 -1.32275,0.76813 -2.98775,1.728 -3.7,2.13304 -4.45208,2.53185 -21.07421,12.26892 -28.48571,16.68664 -6.53517,3.89537 -9.22624,5.12141 -12.87394,5.86528 -3.54568,0.72306 -5.61985,0.30881 -8.24268,-1.64624 -2.49508,-1.85982 -4.10082,-5.03942 -4.41585,-8.744 l -0.22447,-2.63972 -0.25903,2.22 c -0.82479,7.06905 -2.07051,10.10289 -4.85549,11.82527 -1.5874,0.98172 -2.19878,1.13469 -4.80824,1.20306 -1.64427,0.0431 -3.41994,-0.06 -3.94592,-0.22914 z m 8.14556,-2.05133 c 2.7565,-1.91025 3.96457,-5.31598 4.25612,-11.99864 0.41819,-9.58516 0.6185,-72.71767 0.23905,-75.33922 -0.7059,-4.87685 -3.39778,-11.88044 -6.13641,-15.96536 -2.37476,-3.54219 -7.03734,-8.21573 -10.54299,-10.56778 -2.68153,-1.79913 -13.94317,-8.49475 -43.105,-25.62816 -5.291,-3.10862 -10.4525,-6.16198 -11.47,-6.78525 -8.15249,-4.99385 -10.85206,-6.22712 -14.72596,-6.72743 -2.45831,-0.31748 -2.80951,-0.27378 -4.54782,0.56595 -2.37247,1.14607 -2.96568,1.80978 -4.37759,4.89774 l -1.13863,2.49029 -0.11413,37.185 c -0.0766,24.96681 0.0183,38.49142 0.28907,41.16098 0.48833,4.81544 1.36442,7.78292 3.75893,12.73215 5.36507,11.0891 8.9753,14.21607 31.77113,27.51824 3.9612,2.3115 7.18,4.21576 9.67474,5.72363 0.33669,0.2035 1.91898,1.13528 3.51621,2.07062 1.59723,0.93534 8.5276,5.01459 15.40083,9.065 14.5932,8.59981 13.68683,8.09781 17.47322,9.67769 2.63184,1.09813 3.25647,1.21892 5.63415,1.08948 2.17106,-0.11819 2.95089,-0.33735 4.14508,-1.16493 z m -62.35658,-49.22498 c -3.00325,-0.948 -7.16983,-4.37813 -8.54281,-7.03288 -0.31574,-0.6105 -0.78802,-1.35975 -1.04951,-1.665 -0.70565,-0.82375 -2.32669,-5.91681 -2.80493,-8.8127 -0.47006,-2.84629 -0.0952,-5.43805 1.16366,-8.04668 1.94574,-4.03184 7.83902,-4.13597 12.69134,-0.22425 1.71147,1.3797 3.82002,4.26346 5.32202,7.27863 1.43719,2.88509 2.85837,8.96066 2.53125,10.82115 -0.87074,4.9522 -2.29761,7.0935 -5.21661,7.82851 -1.91206,0.48146 -2.12873,0.4737 -4.09441,-0.14678 z m 3.99107,-0.94076 c 1.86117,-0.51693 3.03638,-2.04986 3.8359,-5.0035 0.65094,-2.40479 0.6509,-2.59764 -0.001,-5.85764 -2.03885,-10.1924 -9.94399,-17.73527 -15.95491,-15.22375 -1.97968,0.82716 -3.29235,3.91014 -3.23498,7.59777 0.11119,7.14811 4.92969,15.3329 10.57363,17.96056 2.15873,1.00505 2.80324,1.07602 4.78157,0.52656 z m 28.74772,-17.86808 c -0.7362,-0.274 -1.93079,-0.86421 -2.65464,-1.31157 -1.4151,-0.87458 -5.4418,-5.03795 -5.4418,-5.62649 0,-0.19626 -0.40799,-0.97765 -0.90664,-1.73641 -1.60111,-2.43629 -2.85223,-7.16707 -2.86383,-10.82875 -0.009,-2.84674 0.12286,-3.52664 1.04987,-5.41323 1.29357,-2.63256 2.97397,-3.65268 5.9306,-3.60028 2.04557,0.0363 5.08442,1.30814 6.78,2.83771 1.69469,1.52876 4.44,4.96692 4.44,5.56054 0,0.32217 0.16902,0.69023 0.37561,0.81791 0.20658,0.12767 0.63818,0.84512 0.95911,1.59433 1.44102,3.36402 1.78407,5.11198 1.79231,9.1322 0.009,4.62214 -0.6313,6.44135 -2.81696,7.99767 -1.44317,1.02764 -4.67727,1.30821 -6.64363,0.57637 z m 6.15296,-1.57248 c 2.38531,-1.81936 3.18155,-6.96516 1.8563,-11.99656 -1.68234,-6.38713 -6.83523,-12.44546 -11.67448,-13.72584 -1.47975,-0.39151 -1.87399,-0.35429 -3.40088,0.32112 -6.00681,2.6571 -4.5093,15.42855 2.65667,22.65725 2.5871,2.60974 4.74675,3.6968 7.34518,3.69718 1.5442,2.3e-4 2.23597,-0.20472 3.21721,-0.95315 z m 41.9906,68.50482 c 1.32275,-0.28368 3.48725,-1.00696 4.81,-1.60728 2.35266,-1.06773 3.43565,-1.67869 8.68623,-4.90022 1.41968,-0.87105 3.25118,-1.95022 4.07,-2.39814 0.81882,-0.44792 2.57102,-1.44885 3.89377,-2.22428 1.32275,-0.77543 3.2375,-1.89418 4.255,-2.48612 1.0175,-0.59193 2.93225,-1.72893 4.255,-2.52666 1.32275,-0.79774 2.9045,-1.7052 3.515,-2.0166 0.6105,-0.3114 2.02575,-1.1318 3.145,-1.82312 1.11925,-0.69132 3.367,-1.99877 4.995,-2.90544 1.628,-0.90668 4.54175,-2.60536 6.475,-3.77485 1.93325,-1.16949 4.181,-2.49562 4.995,-2.94697 5.24181,-2.90646 12.97108,-7.54127 15.17,-9.09659 3.50161,-2.47674 8.44371,-7.41169 10.3601,-10.34511 1.99333,-3.05118 4.13614,-7.30911 4.59678,-9.13414 0.19585,-0.77597 0.54276,-2.07686 0.7709,-2.89086 0.22814,-0.814 0.58152,-2.22925 0.78528,-3.145 0.60637,-2.72521 0.61425,-77.28697 0.008,-80.26669 -1.10887,-5.45445 -4.34726,-8.90331 -8.35997,-8.90331 -2.92962,0 -9.99157,2.83615 -13.95368,5.60393 -0.54016,0.37734 -1.11396,0.68607 -1.27511,0.68607 -0.16115,0 -0.8847,0.38773 -1.60788,0.86161 -0.72319,0.47388 -2.31389,1.44292 -3.53489,2.15343 -19.49045,11.3416 -32.69892,19.00738 -34.04,19.75576 -5.55944,3.10235 -13.20124,7.81068 -15.4563,9.52306 -5.07306,3.85222 -9.1252,8.12094 -11.17518,11.77247 -6.33219,11.27921 -6.50668,12.22852 -6.69226,36.40867 -0.075,9.768 -0.22057,25.78185 -0.32357,35.58633 -0.20544,19.55676 10e-5,23.14762 1.50501,26.29205 1.04178,2.17677 3.35048,4.27823 5.3173,4.84 1.76529,0.50421 2.05586,0.49865 4.81,-0.092 z m 18.2718,-28.09964 c -1.57305,-0.71553 -2.67221,-1.68516 -3.40844,-3.00674 -0.92645,-1.66304 -0.88535,-10.10378 0.0604,-12.40699 1.81873,-4.42914 3.65578,-7.27292 6.28536,-9.72981 2.59217,-2.42194 4.67756,-3.35809 7.52403,-3.37759 2.0048,-0.0137 2.44699,0.12104 3.68525,1.12325 0.7739,0.62637 1.79442,1.87512 2.26782,2.775 0.78362,1.48956 0.84754,2.00077 0.71343,5.70614 -0.12816,3.54135 -0.30825,4.4785 -1.3865,7.215 -2.82055,7.15832 -7.52043,11.6098 -12.73816,12.06493 -1.13838,0.0993 -2.29359,-0.0404 -3.0032,-0.36319 z m 5.24979,-1.21298 c 1.37722,-0.46167 2.5098,-1.30338 4.62844,-3.43975 2.84277,-2.86656 3.93898,-4.67856 5.49557,-9.08401 1.10803,-3.13595 1.14306,-8.35224 0.0702,-10.45519 -2.21705,-4.34579 -6.81275,-4.42143 -11.28825,-0.1858 -2.93696,2.77955 -3.63017,3.73152 -5.43015,7.45704 -3.15933,6.53903 -2.34028,14.28691 1.68759,15.96394 1.18082,0.49164 2.87303,0.402 4.83659,-0.25623 z m 23.55481,-62.43972 c -3.68266,-3.32706 -3.71445,-10.72675 -0.0772,-17.97904 1.75896,-3.50722 3.73574,-5.75019 6.86408,-7.78839 2.27249,-1.48058 2.6569,-1.60685 4.91846,-1.61562 3.0544,-0.0118 4.5016,0.70855 5.76945,2.87198 1.44662,2.46848 1.87031,5.23464 1.32218,8.63241 -0.48595,3.01245 -0.80388,3.92349 -2.83483,8.12336 -1.52519,3.154 -4.85212,6.72997 -7.51815,8.08096 -1.45379,0.73669 -2.39812,0.9353 -4.44698,0.9353 -2.43976,0 -2.68786,-0.0783 -3.99696,-1.26096 z m 8.03489,-0.62258 c 6.98888,-3.64281 11.98879,-16.19421 8.89614,-22.33223 -1.29948,-2.57911 -2.49284,-3.34837 -5.1386,-3.31242 -1.79479,0.0244 -2.42871,0.22908 -3.95557,1.27726 -5.77728,3.96606 -9.42413,10.63007 -9.50618,17.37093 -0.0464,3.80935 1.33815,6.79781 3.61792,7.80923 1.18086,0.52389 4.32822,0.10359 6.08629,-0.81277 z m -67.78415,42.67604 c -0.0587,-4.62962 -0.10674,-0.84175 -0.10674,8.4175 0,9.25925 0.048,13.04713 0.10674,8.4175 0.0587,-4.62962 0.0587,-12.20537 0,-16.835 z m 0.36052,-19.795 c -0.0821,-0.66137 -0.14923,-0.12025 -0.14923,1.2025 0,1.32275 0.0672,1.86388 0.14923,1.2025 0.0821,-0.66137 0.0821,-1.74362 0,-2.405 z m -0.0226,-5.18 c -0.10264,-0.25437 -0.18662,-0.0462 -0.18662,0.4625 0,0.50875 0.084,0.71688 0.18662,0.4625 0.10264,-0.25437 0.10264,-0.67062 0,-0.925 z m 0.50279,-11.09303 c 0.52263,-6.33759 2.22669,-11.38936 5.69534,-16.88405 0.52625,-0.83364 0.95776,-1.6439 0.95889,-1.80057 0.003,-0.45392 4.04387,-5.3925 4.9294,-6.02492 0.44194,-0.31562 1.63604,-1.37733 2.65354,-2.35934 1.0175,-0.98201 2.80737,-2.45762 3.9775,-3.27914 1.17012,-0.82152 2.1275,-1.53517 2.1275,-1.58588 0,-0.0507 -1.62338,0.70645 -3.6075,1.6826 -6.59164,3.24297 -12.29736,4.57409 -19.5175,4.55335 -9.00066,-0.0259 -13.39738,-1.72335 -30.92245,-11.93856 -6.39516,-3.72767 -12.21031,-7.11482 -12.92256,-7.52699 -0.71225,-0.41216 -1.1285,-0.57278 -0.925,-0.35692 0.2035,0.21587 2.701,1.76385 5.55,3.43996 2.849,1.67612 8.76954,5.15925 13.15675,7.74029 4.38721,2.58103 8.79946,5.25081 9.805,5.93283 12.10191,8.20828 17.94101,19.23532 18.36169,34.67579 0.0648,2.37755 0.0744,2.4031 0.17969,0.47708 0.0612,-1.11925 0.28605,-4.15473 0.4997,-6.74553 z m 5.35716,-27.42934 c 4.39167,-0.99346 6.73117,-1.82119 11.1,-3.92725 4.03498,-1.94511 6.0096,-3.0286 9.805,-5.38002 1.58015,-0.97897 4.06209,-2.40539 14.8,-8.50583 4.57875,-2.60129 9.99,-5.68729 12.025,-6.85777 2.035,-1.17049 4.44925,-2.53351 5.365,-3.02894 0.91575,-0.49543 2.331,-1.28556 3.145,-1.75583 1.38241,-0.79866 5.2673,-3.002 12.765,-7.23973 9.45636,-5.34477 13.69011,-11.53834 10.73877,-15.70976 -2.33929,-3.30632 -5.43447,-5.96494 -10.47439,-8.99699 -1.58435,-0.95315 -2.95207,-1.73301 -3.03938,-1.73301 -0.0873,0 -1.37178,-0.72306 -2.85438,-1.6068 -3.91575,-2.3341 -10.24219,-6.04553 -21.55386,-12.64465 -5.48803,-3.20166 -10.6046,-6.21661 -11.37015,-6.69988 -0.76555,-0.48327 -1.46111,-0.87867 -1.5457,-0.87867 -0.0846,0 -3.04327,-1.69506 -6.57485,-3.76679 -10.60626,-6.22198 -16.41099,-8.70395 -22.33106,-9.54828 -1.4245,-0.20316 -5.0875,-0.3059 -8.14,-0.22831 -4.65099,0.11821 -6.08036,0.29902 -8.82417,1.11623 -3.66292,1.09095 -9.19539,3.60598 -14.36971,6.53239 -1.89536,1.07195 -4.52837,2.53231 -5.85112,3.24526 -1.32275,0.71294 -3.02607,1.684 -3.78515,2.15788 -0.75908,0.4739 -1.45352,0.86162 -1.5432,0.86162 -0.0897,0 -1.71636,0.89306 -3.61485,1.98458 -1.89849,1.09152 -4.53405,2.57184 -5.8568,3.2896 -1.32275,0.71775 -4.403,2.42763 -6.845,3.79972 -6.14152,3.45073 -10.82739,6.066 -12.58,7.02111 -0.814,0.4436 -2.70203,1.49919 -4.19563,2.34577 -1.49359,0.84657 -2.77498,1.53922 -2.84752,1.53922 -0.0725,0 -1.99396,1.08225 -4.26981,2.405 -2.27585,1.32275 -4.2067,2.405 -4.29077,2.405 -0.23712,0 -3.90858,2.78548 -4.82302,3.65915 -2.85166,2.72452 -3.52208,6.3658 -1.79626,9.75616 1.84598,3.62645 4.79037,6.0799 12.41801,10.34747 3.73099,2.08745 8.56434,4.89083 26.64,15.45141 2.34025,1.36728 6.33625,3.70143 8.88,5.18701 2.54375,1.48558 7.20575,4.22966 10.36,6.09796 11.05466,6.54779 15.9398,8.66884 22.57,9.79949 2.5919,0.442 9.87403,0.16046 12.765,-0.49352 z m 23.92357,-42.62116 c -7.89888,-1.4422 -12.67379,-6.55131 -10.64986,-11.39526 2.5427,-6.08553 13.59739,-8.87269 22.98629,-5.7954 2.5189,0.82559 5.3062,2.84827 6.48381,4.70517 1.34897,2.12711 1.44425,4.19975 0.30454,6.62439 -1.37782,2.93119 -5.96772,5.3461 -11.53638,6.06969 -3.32279,0.43176 -4.21564,0.40722 -7.5884,-0.20859 z M 300.07,160.21816 c 11.71853,-3.95313 8.95453,-13.69295 -4.43985,-15.6452 -5.57897,-0.81314 -13.64767,1.69357 -15.76888,4.89895 -2.42373,3.66248 -0.98529,7.25387 3.92873,9.80898 4.14181,2.15359 11.43048,2.57321 16.28,0.93727 z m -79.735,1.5901 c -6.53651,-1.02443 -10.75417,-3.61512 -11.84044,-7.27298 -0.82374,-2.77383 -0.19423,-5.38969 1.72279,-7.15882 1.54314,-1.4241 5.05996,-3.10964 7.62014,-3.65218 3.20629,-0.67945 7.72882,-0.67515 10.96479,0.0104 8.84537,1.87398 12.7621,8.38994 8.12706,13.52038 -1.65486,1.83172 -3.05252,2.68669 -5.91957,3.62104 -2.27106,0.74012 -8.45467,1.28009 -10.67477,0.93214 z m 8.02929,-1.28428 c 4.65155,-0.99213 8.91936,-3.94404 9.39905,-6.50105 0.77885,-4.15161 -2.4256,-7.4398 -8.82818,-9.05888 -6.74541,-1.70577 -14.92699,0.0483 -18.3361,3.931 -1.35376,1.54185 -1.81185,4.04196 -1.06717,5.82423 0.97693,2.33812 4.57987,4.73796 8.56777,5.7068 2.40056,0.5832 7.75011,0.63422 10.26463,0.0979 z M 211.27,185.9512 c 0,-0.083 -1.78987,-1.1893 -3.9775,-2.45835 -4.70387,-2.72874 -4.80037,-2.78046 -4.43257,-2.37589 0.24844,0.27327 8.07318,4.95542 8.31757,4.97704 0.0509,0.005 0.0925,-0.0598 0.0925,-0.1428 z m -8.88,-5.201 c 0,-0.0946 -0.37463,-0.35352 -0.8325,-0.57541 -0.79943,-0.3874 -0.80397,-0.38057 -0.11428,0.17198 0.75489,0.6048 0.94678,0.68656 0.94678,0.40343 z m -1.85,-1.11352 c 0,-0.0965 -0.4995,-0.43379 -1.11,-0.7495 -1.39153,-0.71958 -1.47572,-0.40704 -0.0925,0.34337 1.16274,0.6308 1.2025,0.64423 1.2025,0.40613 z m -2.7935,-1.61528 c -0.63027,-0.55727 -3.1265,-1.97474 -3.1265,-1.77537 0,0.10682 0.70762,0.61832 1.5725,1.13668 1.59757,0.95749 2.18992,1.20095 1.554,0.63869 z m 160.29017,54.82411 c -0.33311,-0.3331 -0.24413,-9.32024 0.10379,-10.48333 0.15218,-0.50875 0.28416,1.69738 0.29329,4.9025 0.009,3.20513 -0.021,5.8275 -0.0669,5.8275 -0.0459,0 -0.19451,-0.111 -0.33017,-0.24667 z M 372.01361,99.044831 c -0.10075,-0.262545 -0.13715,-3.13467 -0.0809,-6.3825 l 0.1023,-5.905148 3.18833,-0.08802 c 2.90857,-0.0803 3.27154,-0.01088 4.13715,0.791345 2.08747,1.934597 2.01547,5.821598 -0.14367,7.756169 -1.04173,0.933377 -1.39642,1.038942 -2.97965,0.886813 l -1.79716,-0.172683 0,1.795684 c 0,1.752671 -0.027,1.795688 -1.12162,1.795688 -0.61686,0 -1.20405,-0.214808 -1.30477,-0.477352 z m 5.79517,-5.674383 c 0.27468,-0.330954 0.49939,-1.225673 0.49939,-1.988265 0,-1.647359 -0.67603,-2.59 -1.85748,-2.59 -1.60942,0 -2.44437,2.141175 -1.64987,4.230913 0.27295,0.717888 0.62245,0.949087 1.43472,0.949087 0.59063,0 1.29858,-0.270781 1.57324,-0.601735 z M 283.42,91.382183 l 0,-4.81 1.11,0 1.11,0 0,4.81 0,4.81 -1.11,0 -1.11,0 0,-4.81 z m 1.48,0 c 0,-2.466668 -0.14576,-4.07 -0.37,-4.07 -0.22424,0 -0.37,1.603332 -0.37,4.07 0,2.466668 0.14576,4.07 0.37,4.07 0.22424,0 0.37,-1.603332 0.37,-4.07 z m 3.7,0 0,-4.81 1.11,0 1.11,0 0,4.81 0,4.81 -1.11,0 -1.11,0 0,-4.81 z m 1.48,0 c 0,-2.466668 -0.14576,-4.07 -0.37,-4.07 -0.22424,0 -0.37,1.603332 -0.37,4.07 0,2.466668 0.14576,4.07 0.37,4.07 0.22424,0 0.37,-1.603332 0.37,-4.07 z m 4.83108,4.091079 c -0.64706,-0.64706 -0.76108,-1.225777 -0.76108,-3.862926 0,-2.790673 -0.0742,-3.121257 -0.74,-3.295361 -0.407,-0.106434 -0.74,-0.47444 -0.74,-0.817792 0,-0.343353 0.333,-0.711359 0.74,-0.817793 0.51506,-0.134691 0.74,-0.504687 0.74,-1.217207 0,-0.739767 0.22305,-1.082021 0.80421,-1.233998 1.10604,-0.289237 1.41579,-0.0145 1.41579,1.255835 0,0.962403 0.12828,1.088163 1.11,1.088163 0.93733,0 1.11,0.143889 1.11,0.925 0,0.78407 -0.17159,0.925 -1.12621,0.925 l -1.12621,0 0.10871,2.666986 c 0.10195,2.501118 0.16624,2.680498 1.03371,2.884183 0.67649,0.158841 0.925,0.461223 0.925,1.12551 0,0.779953 -0.19311,0.924371 -1.36642,1.0219 -0.99153,0.08242 -1.57523,-0.09523 -2.1275,-0.6475 z m 1.54125,-0.597058 C 295.70754,94.35453 295.63,93.990427 295.63,91.014643 l 0,-3.285574 1.2025,-0.149228 1.2025,-0.149232 -1.2025,-0.05921 c -1.08169,-0.05326 -1.2025,-0.172919 -1.2025,-1.191052 0,-0.660339 -0.15413,-1.036577 -0.37,-0.903162 -0.2035,0.12577 -0.37,0.622887 -0.37,1.104705 0,0.523191 -0.26079,0.944188 -0.6475,1.045243 -0.56011,0.146372 -0.56508,0.175002 -0.0368,0.212132 0.50929,0.03578 0.63216,0.600861 0.74,3.402967 0.10806,2.807671 0.24739,3.446351 0.84754,3.885 0.39502,0.288726 0.88994,0.524953 1.09983,0.524953 0.20988,0 0.0115,-0.259193 -0.44072,-0.575979 z m 9.53767,-3.442454 0,-4.75843 2.6825,-0.02368 c 1.62204,-0.01432 2.98139,0.168272 3.43855,0.461867 0.62795,0.403282 0.87502,0.398557 1.45822,-0.0279 0.73008,-0.533843 2.652,-0.681591 3.68915,-0.283601 1.18426,0.454442 1.68158,2.186582 1.68158,5.856789 l 0,3.533375 -1.11,0 -1.11,0 0,-2.984324 c 0,-3.408377 -0.37982,-4.415665 -1.665,-4.415665 -1.28518,0 -1.665,1.007288 -1.665,4.415676 l 0,2.984324 -1.11,0 -1.11,0 0,-2.984324 c 0,-3.264573 -0.38581,-4.415676 -1.48,-4.415676 -1.09419,0 -1.48,1.151103 -1.48,4.415676 l 0,2.984324 -1.11,0 -1.11,0 0,-4.758433 z m 1.54624,0.687582 c 0.0653,-1.831967 0.005,-3.330467 -0.13301,-3.33 -0.13847,3.7e-4 -0.32392,-0.373774 -0.41211,-0.831649 -0.0882,-0.457875 -0.18302,1.040625 -0.21073,3.33 -0.06,4.957674 0.5835,5.665717 0.75585,0.831649 z m 5.11376,0.357834 c 0,-2.938185 -0.6122,-4.796983 -1.5799,-4.796983 -0.21164,0 -0.10924,0.304484 0.22755,0.676633 0.4707,0.520113 0.61235,1.418814 0.61235,3.885 0,1.892243 0.15178,3.208367 0.37,3.208367 0.21597,0 0.37,-1.237673 0.37,-2.973017 z m 5.54794,0.660517 c -0.003,-3.185852 -0.52841,-4.873252 -1.68148,-5.398626 -1.45668,-0.66371 -1.59063,-0.504869 -0.25896,0.30707 l 1.2025,0.733178 0,3.335439 c 0,1.976958 0.1507,3.335439 0.37,3.335439 0.20742,0 0.36909,-1.016124 0.36794,-2.3125 z m 3.68296,2.293397 c -1.77835,-1.778346 -0.34451,-4.878395 2.47526,-5.351677 0.78586,-0.131901 1.57601,-0.275243 1.75589,-0.31854 0.17988,-0.04329 0.0311,-0.374699 -0.33069,-0.736459 -0.46757,-0.46758 -0.93654,-0.583908 -1.62205,-0.402364 -1.65721,0.438879 -2.04139,0.375391 -2.19287,-0.3624 -0.30141,-1.468072 2.71597,-2.260256 4.87035,-1.278657 1.34639,0.613456 1.72321,1.849803 1.72321,5.653825 l 0,3.439805 -2.9791,0.03868 c -2.49192,0.03238 -3.097,-0.07921 -3.7,-0.682213 z m 5.60731,-5.921284 -0.36131,-0.904613 -0.0234,0.990371 c -0.0147,0.618803 -0.26638,1.053853 -0.67096,1.159577 -0.58607,0.153157 -0.58253,0.173282 0.0373,0.212132 0.57982,0.03633 0.66446,0.298083 0.55233,1.70792 -0.0728,0.91575 -0.006,1.665 0.14774,1.665 0.1541,0 0.31325,0.291375 0.35369,0.6475 0.0404,0.356125 0.13032,-0.527173 0.19975,-1.962887 0.0694,-1.435711 -0.0363,-3.017461 -0.23506,-3.515 z m -4.40267,2.33437 c 0.21179,-0.255189 0.28527,-0.463983 0.16329,-0.463983 -0.61443,0 -1.39055,1.868792 -1.10653,2.664384 0.27425,0.768228 0.31599,0.72533 0.43091,-0.442901 0.07,-0.711432 0.30053,-1.502307 0.51233,-1.7575 z m 2.43213,1.920038 c 0.45228,-0.316791 0.82233,-0.917589 0.82233,-1.335112 0,-0.64195 -0.15706,-0.720623 -1.0175,-0.509671 -1.53198,0.37559 -2.18183,1.13156 -1.58791,1.847191 0.59252,0.713941 0.76067,0.713716 1.78308,-0.0026 z m 6.52033,1.167979 c -1.16013,-1.160128 -1.258,-1.43647 -1.258,-3.552 0,-2.131459 0.0924,-2.386408 1.30419,-3.598191 1.21662,-1.216623 1.42779,-1.292318 3.145,-1.127312 l 1.84081,0.176874 0,-2.165684 c 0,-2.159653 0.003,-2.165687 1.11,-2.165687 l 1.11,0 0.0555,6.29 c 0.0305,3.4595 0.0721,6.498125 0.0925,6.7525 0.0488,0.609508 -1.53051,0.819017 -2.17042,0.287937 -0.3454,-0.286653 -0.5764,-0.2955 -0.74148,-0.02842 -0.13187,0.213383 -0.9126,0.387968 -1.73494,0.387968 -1.20704,0 -1.73757,-0.242413 -2.75316,-1.258 z m 6.33642,-11.62092 c -0.10693,-0.106926 -0.28226,-0.106574 -0.38962,7.4e-4 -0.30995,0.309953 -0.23795,9.409304 0.0866,10.938987 0.20022,0.943759 0.32607,-0.545446 0.39556,-4.680603 0.056,-3.335613 0.0144,-6.152238 -0.0925,-6.259168 z m -5.20624,10.860736 c -1.23626,-1.236262 -1.27934,-4.060413 -0.0856,-5.609418 0.57513,-0.746272 0.62344,-0.908535 0.1606,-0.539345 -1.13752,0.907336 -1.81834,2.627473 -1.59199,4.022273 0.19545,1.204395 1.48399,3.034674 2.13645,3.034674 0.15878,0 -0.12,-0.408684 -0.6195,-0.908184 z m 3.32039,-0.783245 c 0.69557,-0.695567 0.76893,-3.114424 0.11893,-3.921149 -1.35561,-1.682468 -3.40568,-0.583091 -3.40568,1.826342 0,0.810022 0.22473,1.743547 0.49939,2.074501 0.63429,0.764268 2.03321,0.774458 2.78736,0.02031 z m 5.70593,-1.453571 c -0.0305,-2.34025 -0.0722,-4.463125 -0.0925,-4.7175 -0.0203,-0.254375 0.42087,-0.515185 0.9805,-0.579576 0.56508,-0.06502 1.0175,0.06415 1.0175,0.290517 0,0.288322 0.20942,0.295515 0.71568,0.02457 0.39362,-0.21066 1.05962,-0.383017 1.48,-0.383017 1.15295,0 1.09832,2.120563 -0.0589,2.286767 -1.2065,0.173278 -1.75515,1.621987 -1.76131,4.650733 l -0.005,2.682508 -1.11,0 -1.11,0 -0.0555,-4.255 z m 1.5355,0.629 c 0,-1.813644 0.17185,-3.059123 0.4625,-3.351923 0.37074,-0.373482 0.33947,-0.419095 -0.15762,-0.229922 -0.47283,0.17995 -0.65739,-0.01258 -0.77706,-0.810577 -0.0863,-0.575616 -0.18189,0.826547 -0.21238,3.115922 -0.0342,2.565291 0.0865,4.1625 0.31456,4.1625 0.21504,0 0.37,-1.208668 0.37,-2.886 z m 2.28937,-4.766751 c -0.26709,-0.106882 -0.58622,-0.09374 -0.70916,0.02919 -0.12295,0.122947 0.0956,0.210397 0.48562,0.194331 0.43103,-0.01776 0.51871,-0.105427 0.22354,-0.223539 z m 3.24153,7.633648 c -1.77835,-1.778346 -0.34451,-4.878395 2.47526,-5.351677 0.78586,-0.131901 1.57601,-0.275243 1.75589,-0.31854 0.17988,-0.04329 0.0311,-0.374699 -0.33069,-0.736459 -0.46757,-0.46758 -0.93654,-0.583908 -1.62205,-0.402364 -1.65721,0.438879 -2.04139,0.375391 -2.19287,-0.3624 -0.30141,-1.468072 2.71597,-2.260256 4.87035,-1.278657 1.34639,0.613456 1.72321,1.849803 1.72321,5.653825 l 0,3.439805 -2.9791,0.03868 c -2.49192,0.03238 -3.097,-0.07921 -3.7,-0.682213 z m 5.60731,-5.921284 -0.36131,-0.904613 -0.0234,0.990371 c -0.0147,0.618803 -0.26638,1.053853 -0.67096,1.159577 -0.58607,0.153157 -0.58253,0.173282 0.0373,0.212132 0.57982,0.03633 0.66446,0.298083 0.55233,1.70792 -0.0728,0.91575 -0.006,1.665 0.14774,1.665 0.1541,0 0.31325,0.291375 0.35369,0.6475 0.0404,0.356125 0.13032,-0.527173 0.19975,-1.962887 0.0694,-1.435711 -0.0363,-3.017461 -0.23506,-3.515 z m -4.40267,2.33437 c 0.21179,-0.255189 0.28527,-0.463983 0.16329,-0.463983 -0.61443,0 -1.39055,1.868792 -1.10653,2.664384 0.27425,0.768228 0.31599,0.72533 0.43091,-0.442901 0.07,-0.711432 0.30053,-1.502307 0.51233,-1.7575 z m 2.43213,1.920038 c 0.45228,-0.316791 0.82233,-0.917589 0.82233,-1.335112 0,-0.64195 -0.15706,-0.720623 -1.0175,-0.509671 -1.53198,0.37559 -2.18183,1.13156 -1.58791,1.847191 0.59252,0.713941 0.76067,0.713716 1.78308,-0.0026 z m 5.86791,1.953718 c -0.42526,-0.310959 -0.55686,-0.704188 -0.38529,-1.151285 0.20949,-0.54592 0.53697,-0.641946 1.67067,-0.489887 1.95932,0.2628 2.62633,-0.549735 1.1863,-1.445124 -2.04766,-1.273207 -2.70726,-2.083085 -2.70726,-3.324083 0,-1.502948 1.42709,-2.73736 3.16464,-2.73736 1.76957,0 2.38536,0.339038 2.38536,1.313311 0,0.752121 -0.20384,0.878891 -1.5725,0.977914 -1.85614,0.134299 -1.92333,0.600173 -0.22057,1.52945 1.64803,0.899411 2.16307,1.629961 2.16307,3.068188 0,1.622816 -1.41797,2.731137 -3.49418,2.731137 -0.84941,0 -1.83502,-0.212517 -2.19024,-0.472261 z m 4.66941,-2.904463 c -0.32755,-1.25255 -0.68486,-1.050134 -0.52739,0.298757 0.0921,0.788514 0.26418,1.13015 0.43233,0.858085 0.15365,-0.248618 0.19643,-0.769197 0.0951,-1.156842 z m -2.97423,-2.265776 c -0.20892,-0.254375 -0.43894,-0.87875 -0.51115,-1.3875 -0.10153,-0.715292 -0.18712,-0.787834 -0.37754,-0.319976 -0.22498,0.552772 0.56441,2.169976 1.05922,2.169976 0.11512,0 0.0384,-0.208125 -0.17053,-0.4625 z m 22.64986,5.157378 c -0.10238,-0.266818 -0.13879,-2.389693 -0.0809,-4.7175 l 0.10526,-4.232378 2.59,0 c 2.41321,0 2.59814,0.05749 2.70951,0.842327 0.0937,0.660106 -0.13216,0.930069 -1.04392,1.247906 -1.46102,0.50932 -1.85059,1.515298 -1.85059,4.778854 l 0,2.565913 -1.12162,0 c -0.61686,0 -1.20538,-0.218304 -1.30776,-0.485122 z m 7.38738,-0.772878 c -1.10493,-1.10495 -1.258,-1.489813 -1.258,-3.163375 0,-2.11479 0.68158,-3.746594 1.93022,-4.621166 0.93809,-0.657057 3.32004,-0.76391 4.38028,-0.196493 0.99186,0.530839 1.8295,2.296124 1.8295,3.855659 l 0,1.313375 -2.775,0 c -2.03026,0 -2.775,0.129089 -2.775,0.481 0,0.93358 0.90983,1.369 2.86062,1.369 1.48917,0 2.02982,0.149121 2.20612,0.608505 0.36541,0.952251 -0.91893,1.611495 -3.13945,1.611495 -1.78266,0 -2.13875,-0.137441 -3.25929,-1.258 z m 4.31531,-5.35847 c -0.55174,-1.030931 -1.51152,-1.260801 -2.29681,-0.550105 -1.06013,0.959407 -0.83173,1.246575 0.99152,1.246575 1.5284,0 1.64477,-0.0621 1.30529,-0.69647 z m 4.99556,6.124677 c -0.56622,-0.414023 -0.60214,-0.623339 -0.22733,-1.323694 0.24486,-0.457549 0.64058,-0.758592 0.87934,-0.668986 1.56699,0.588086 2.02978,0.608843 2.44407,0.109639 0.37244,-0.448751 0.17534,-0.713246 -1.15025,-1.543666 -1.93566,-1.212586 -2.14179,-1.495943 -2.14904,-2.954506 -0.008,-1.553593 1.31313,-2.746994 3.04044,-2.746994 1.89806,0 2.5039,0.322906 2.5039,1.334586 0,0.784108 -0.16683,0.885414 -1.45817,0.885414 -1.91001,0 -2.19636,0.556317 -0.68143,1.32386 2.0155,1.021155 2.5096,1.640665 2.5096,3.146631 0,1.06721 -0.22951,1.576326 -0.97491,2.162654 -1.13057,0.889314 -3.69268,1.038113 -4.73622,0.275062 z m 8.81913,-0.766207 c -1.10493,-1.10495 -1.258,-1.489813 -1.258,-3.163375 0,-2.11479 0.68158,-3.746594 1.93022,-4.621166 0.93809,-0.657057 3.32004,-0.76391 4.38028,-0.196493 0.99186,0.530839 1.8295,2.296124 1.8295,3.855659 l 0,1.313375 -2.775,0 c -2.03026,0 -2.775,0.129089 -2.775,0.481 0,0.93358 0.90983,1.369 2.86062,1.369 1.48917,0 2.02982,0.149121 2.20612,0.608505 0.36541,0.952251 -0.91893,1.611495 -3.13945,1.611495 -1.78266,0 -2.13875,-0.137441 -3.25929,-1.258 z m 4.31531,-5.35847 c -0.55174,-1.030931 -1.51152,-1.260801 -2.29681,-0.550105 -1.06013,0.959407 -0.83173,1.246575 0.99152,1.246575 1.5284,0 1.64477,-0.0621 1.30529,-0.69647 z m 4.57731,6.131348 c -0.10238,-0.266818 -0.13879,-2.389693 -0.0809,-4.7175 l 0.10526,-4.232378 3.07725,-0.08458 c 2.79765,-0.0769 3.15633,-0.0055 3.94783,0.786042 1.00211,1.00209 1.40415,3.067267 1.23206,6.32854 -0.1164,2.206302 -0.12458,2.220714 -1.31964,2.335943 l -1.2025,0.115943 0,-3.007767 c 0,-3.280472 -0.38421,-4.439119 -1.47205,-4.439119 -1.27857,0 -1.85795,1.410207 -1.85795,4.522328 l 0,2.877672 -1.12162,0 c -0.61686,0 -1.20538,-0.218304 -1.30776,-0.485122 z m 11.89909,-0.317627 C 429.0039,94.795788 428.83,93.706319 428.83,91.694788 c 0,-2.527784 -0.0843,-2.879491 -0.74,-3.087605 -0.41925,-0.133067 -0.74,-0.559821 -0.74,-0.984574 0,-0.438535 0.30714,-0.830025 0.74,-0.943219 0.52418,-0.13707 0.74,-0.504687 0.74,-1.26036 0,-0.586765 0.12488,-1.069119 0.2775,-1.071898 0.15262,-0.003 0.65213,-0.10545 1.11,-0.228157 0.75099,-0.201257 0.8325,-0.0921 0.8325,1.115055 0,1.246611 0.0776,1.338153 1.13457,1.338153 1.01946,0 1.12269,0.103259 1.0175,1.0175 -0.0925,0.803677 -0.33433,1.042434 -1.15089,1.136151 -1.02871,0.118064 -1.03326,0.13078 -0.925,2.574586 0.10083,2.275711 0.17671,2.471874 1.03382,2.673032 0.67651,0.158774 0.925,0.461097 0.925,1.12541 0,0.800754 -0.18211,0.921593 -1.53779,1.020401 -1.25393,0.09139 -1.64669,-0.04335 -2.1275,-0.729829 z m 5.90916,0.310956 c -0.56622,-0.414023 -0.60214,-0.623339 -0.22733,-1.323694 0.24486,-0.457549 0.64058,-0.758592 0.87934,-0.668986 1.56699,0.588086 2.02978,0.608843 2.44407,0.109639 0.37244,-0.448751 0.17534,-0.713246 -1.15025,-1.543666 -1.93566,-1.212586 -2.14179,-1.495943 -2.14904,-2.954506 -0.008,-1.553593 1.31313,-2.746994 3.04044,-2.746994 1.89806,0 2.5039,0.322906 2.5039,1.334586 0,0.784108 -0.16683,0.885414 -1.45817,0.885414 -1.91001,0 -2.19636,0.556317 -0.68143,1.32386 2.0155,1.021155 2.5096,1.640665 2.5096,3.146631 0,1.06721 -0.22951,1.576326 -0.97491,2.162654 -1.13057,0.889314 -3.69268,1.038113 -4.73622,0.275062 z M 283.2016,85.323573 c -0.44342,-1.155539 0.005,-1.89639 1.14847,-1.89639 0.98103,0 1.10493,0.124464 1.10493,1.11 0,0.936425 -0.15944,1.128341 -1.01961,1.227279 -0.65067,0.07484 -1.0971,-0.08468 -1.23379,-0.440889 z M 284.9,84.515345 c 0,-0.08974 -0.1665,-0.163162 -0.37,-0.163162 -0.2035,0 -0.37,0.176327 -0.37,0.391837 0,0.21551 0.1665,0.288933 0.37,0.163163 0.2035,-0.125771 0.37,-0.302098 0.37,-0.391838 z m 3.4816,0.808228 c -0.44342,-1.155539 0.005,-1.89639 1.14847,-1.89639 0.98103,0 1.10493,0.124464 1.10493,1.11 0,0.936425 -0.15944,1.128341 -1.01961,1.227279 -0.65067,0.07484 -1.0971,-0.08468 -1.23379,-0.440889 z m 1.6984,-0.808228 c 0,-0.08974 -0.1665,-0.163162 -0.37,-0.163162 -0.2035,0 -0.37,0.176327 -0.37,0.391837 0,0.21551 0.1665,0.288933 0.37,0.163163 0.2035,-0.125771 0.37,-0.302098 0.37,-0.391838 z"
       id="path2996"
       inkscape:connector-curvature="0" />
  </g>
</svg>
