<?xml version="1.0" encoding="UTF-8" standalone="no"?>
<!-- Created with Inkscape (http://www.inkscape.org/) -->

<svg
   xmlns:dc="http://purl.org/dc/elements/1.1/"
   xmlns:cc="http://creativecommons.org/ns#"
   xmlns:rdf="http://www.w3.org/1999/02/22-rdf-syntax-ns#"
   xmlns:svg="http://www.w3.org/2000/svg"
   xmlns="http://www.w3.org/2000/svg"
   xmlns:sodipodi="http://sodipodi.sourceforge.net/DTD/sodipodi-0.dtd"
   xmlns:inkscape="http://www.inkscape.org/namespaces/inkscape"
   width="744.09448819"
   height="1052.3622047"
   id="svg2"
   version="1.1"
   inkscape:version="0.48.4 r9939"
   sodipodi:docname="New document 1">
  <defs
     id="defs4" />
  <sodipodi:namedview
     id="base"
     pagecolor="#ffffff"
     bordercolor="#666666"
     borderopacity="1.0"
     inkscape:pageopacity="0.0"
     inkscape:pageshadow="2"
     inkscape:zoom="2"
     inkscape:cx="394.48437"
     inkscape:cy="778.47035"
     inkscape:document-units="px"
     inkscape:current-layer="layer1"
     showgrid="false"
     inkscape:window-width="1366"
     inkscape:window-height="705"
     inkscape:window-x="-8"
     inkscape:window-y="-8"
     inkscape:window-maximized="1" />
  <metadata
     id="metadata7">
    <rdf:RDF>
      <cc:Work
         rdf:about="">
        <dc:format>image/svg+xml</dc:format>
        <dc:type
           rdf:resource="http://purl.org/dc/dcmitype/StillImage" />
        <dc:title></dc:title>
      </cc:Work>
    </rdf:RDF>
  </metadata>
  <g
     inkscape:label="Layer 1"
     inkscape:groupmode="layer"
     id="layer1">
    <path
       style="font-size:medium;font-style:normal;font-variant:normal;font-weight:normal;font-stretch:normal;text-indent:0;text-align:start;text-decoration:none;line-height:normal;letter-spacing:normal;word-spacing:normal;text-transform:none;direction:ltr;block-progression:tb;writing-mode:lr-tb;text-anchor:start;baseline-shift:baseline;color:#000000;fill-opacity:1;fill-rule:nonzero;stroke:none;stroke-width:1;marker:none;visibility:visible;display:inline;overflow:visible;enable-background:accumulate;font-family:Sans;-inkscape-font-specification:Sans"
       d="m 260.90625,103.90625 c -5.90523,-0.33079 -11.87739,0.0993 -15.90625,1.4375 -0.66034,0.21933 -1.95946,0.84459 -3.90625,1.8125 -1.94679,0.96791 -4.48795,2.26881 -7.4375,3.8125 -5.8991,3.08738 -13.45307,7.10605 -21.1875,11.3125 -15.46887,8.41291 -31.6702,17.47178 -37.03125,20.875 -3.99729,2.53751 -6.48635,5.29447 -7.40625,8.3125 -0.9199,3.01803 -0.2164,6.25041 2.03125,9.5625 l 1.75,2.5625 -1.09375,-0.28125 c -1.97659,-0.49609 -4.21008,0.0652 -6.15625,1.28125 -1.94617,1.21609 -3.62557,3.10136 -4.5625,5.34375 -1.42199,3.40334 -1.57032,9.72307 -1.3125,45.90625 L 159,257.875 l 0,0.0937 0.0625,0.0937 3.59375,7.5625 c 4.30183,9.00757 8.2653,13.77761 15.375,18.46875 2.07817,1.37122 14.28074,8.63734 28,16.75 13.71926,8.11266 28.88327,17.00394 36.71875,21.5 3.02383,1.7351 6.93536,1.19855 10.09375,-0.59375 3.15839,-1.7923 5.63357,-4.86126 5.6875,-8.34375 0.001,-0.0852 -0.002,-0.10853 0,-0.1875 0.14547,0.32059 0.26714,0.56769 0.46875,1.03125 0.83475,1.91929 2.93179,4.12013 4.875,5.125 1.46919,0.75975 2.95238,1.21147 4.8125,1.125 1.86012,-0.0865 4.09284,-0.69401 7.21875,-2.03125 6.25182,-2.67447 16.10066,-8.24114 33.5625,-18.40625 17.62071,-10.2576 27.69545,-16.3291 34.03125,-21.1875 6.3358,-4.8584 8.92609,-8.53127 11.5,-13.78125 l 2.9375,-6 0.0625,-0.125 0,-0.0937 0.28125,-43.71875 c 0.252,-38.0463 0.18209,-44.10978 -1.3125,-47 -2.32032,-4.48702 -6.1572,-6.67856 -10.53125,-5.96875 l -2.0625,0.34375 1,-1.09375 c 1.39812,-1.5007 2.125,-3.76295 2.125,-6.4375 0,-1.73201 -0.17539,-3.00524 -0.84375,-4.25 -0.66836,-1.24476 -1.79742,-2.436 -3.65625,-4.1875 -0.58976,-0.5557 -1.81288,-1.41345 -3.625,-2.625 -1.81212,-1.21155 -4.17928,-2.74233 -6.9375,-4.46875 -5.51644,-3.45284 -12.58955,-7.72488 -19.90625,-12.0625 -14.6334,-8.67524 -30.17611,-17.54185 -36.09375,-20.3125 -3.79833,-1.77838 -9.62602,-2.85671 -15.53125,-3.1875 z M 459,104.375 c -10.79729,0 -12.11736,0.23537 -18.28125,3.15625 -5.78627,2.74194 -21.47958,11.57593 -36.21875,20.1875 -7.36958,4.30578 -14.49741,8.56439 -20,11.9375 -2.75129,1.68656 -5.07089,3.15774 -6.84375,4.3125 -1.77286,1.15476 -2.94435,1.94292 -3.46875,2.4375 -2.19493,2.07009 -3.60095,4.08697 -4.15625,6.1875 -0.5553,2.10053 -0.23303,4.27322 0.84375,6.53125 l 1.21875,2.5625 -2.1875,-0.0625 c -1.84182,-0.0524 -4.39663,0.84154 -6,2.03125 -1.28788,0.95561 -2.35109,1.88085 -3.125,3.4375 -0.77391,1.55665 -1.26574,3.68593 -1.59375,7.125 -0.65602,6.87814 -0.62606,19.00329 -0.46875,42.09375 L 359,258.875 l 0,0.0937 0.0625,0.125 2.9375,5.8125 c 2.56431,5.06467 5.13227,8.63877 10.875,13.1875 5.74273,4.54873 14.66167,10.08291 30,19.21875 33.72034,20.08457 40.08294,23.53658 44.5,23.53125 1.82083,-0.002 4.23797,-0.84922 6.28125,-1.90625 1.02164,-0.52851 1.93765,-1.1037 2.625,-1.6875 0.68735,-0.5838 1.21875,-1.13969 1.21875,-1.875 0,-0.28932 0.22673,-0.5 0.5,-0.5 0.0643,0 0.16266,0.0355 0.28125,0.21875 0.11859,0.18328 0.21875,0.47574 0.21875,0.8125 0,0.64158 0.31358,1.30038 0.78125,2.0625 0.43555,0.70978 1.04024,1.45512 1.6875,2.125 l 0,0.0312 0.125,0.125 c 3.07963,3.07964 9.01071,3.48108 14.5,1.1875 1.48996,-0.62254 5.8964,-3.0755 11.9375,-6.5 6.0411,-3.4245 13.65487,-7.79854 21.25,-12.25 7.59513,-4.45146 15.16914,-8.96322 21.21875,-12.625 6.04961,-3.66178 10.53305,-6.45896 12,-7.5625 5.47974,-4.12225 9.70368,-9.85961 13.625,-18.4375 1.1158,-2.44081 1.72877,-4.10417 2.09375,-9.90625 0.36498,-5.80208 0.5143,-15.81711 0.78125,-35.28125 0.1509,-11.00284 0.19669,-21.52387 0.15625,-29.59375 -0.0202,-4.03494 -0.0605,-7.45655 -0.125,-10.03125 -0.0645,-2.5747 -0.12548,-4.24254 -0.25,-4.96875 -0.4693,-2.73697 -1.85952,-5.30472 -3.65625,-7.21875 -1.79673,-1.91403 -4.00739,-3.1875 -6.21875,-3.1875 -0.66625,0 -1.22239,-0.11256 -1.53125,-0.21875 -0.074,-0.0255 -0.0861,-0.01 -0.125,-0.0312 2.10854,-4.1257 3.24697,-7.03475 3.21875,-9.53125 -0.0288,-2.54641 -1.29936,-4.59413 -3.59375,-6.875 -0.23486,-0.23348 -0.60534,-0.51035 -1.1875,-0.90625 -0.58216,-0.3959 -1.34764,-0.88098 -2.28125,-1.46875 -1.86722,-1.17554 -4.38859,-2.71865 -7.375,-4.5 -5.97281,-3.56269 -13.7756,-8.11408 -21.8125,-12.71875 -16.07381,-9.20934 -32.99244,-18.6402 -38,-20.9375 -2.1677,-0.99447 -3.91069,-1.57235 -6.3125,-1.90625 C 467.00444,104.44735 463.94109,104.375 459,104.375 z m -198.15625,0.53125 c 5.81918,0.32597 11.5771,1.41798 15.15625,3.09375 5.78427,2.7082 21.37717,11.58103 36,20.25 7.31141,4.33448 14.40035,8.61626 19.90625,12.0625 2.75295,1.72312 5.10794,3.23518 6.90625,4.4375 1.79831,1.20232 3.07751,2.13496 3.53125,2.5625 1.83864,1.73248 2.86597,2.87308 3.4375,3.9375 0.57153,1.06442 0.71875,2.07981 0.71875,3.75 0,2.49563 -0.67565,4.52745 -1.84375,5.78125 l -1.96875,2.09375 -1,1.09375 1.4375,-0.25 3.46875,-0.5625 c 3.96831,-0.64397 7.28893,1.25345 9.46875,5.46875 1.22091,2.36096 1.47073,8.4573 1.21875,46.5 L 357,258.78125 l -2.875,5.875 c -2.53854,5.17782 -5.00033,8.6139 -11.25,13.40625 -6.24967,4.79235 -16.29118,10.87068 -33.90625,21.125 -17.45759,10.16264 -27.32961,15.74873 -33.46875,18.375 -3.06957,1.31313 -5.20151,1.85971 -6.875,1.9375 -1.67349,0.0778 -2.89856,-0.31623 -4.28125,-1.03125 -1.65465,-0.85565 -3.7171,-3.04049 -4.40625,-4.625 -0.32972,-0.75811 -0.61142,-1.341 -0.8125,-1.75 -0.10054,-0.2045 -0.16242,-0.3637 -0.25,-0.5 -0.0876,-0.1363 -0.15768,-0.26022 -0.40625,-0.375 -0.12428,-0.0574 -0.34117,-0.0563 -0.5,0.0312 -0.15883,0.0876 -0.21032,0.19645 -0.25,0.28125 -0.0794,0.1696 -0.10628,0.30272 -0.125,0.46875 -0.0374,0.33206 -0.0532,0.77194 -0.0625,1.375 -0.0466,3.00931 -2.261,5.8393 -5.1875,7.5 -2.9265,1.6607 -6.47939,2.12514 -9.09375,0.625 -7.82451,-4.48977 -23.00162,-13.41985 -36.71875,-21.53125 -13.71713,-8.1114 -26.03981,-15.44598 -27.96875,-16.71875 -6.99494,-4.61542 -10.74105,-9.14471 -15,-18.0625 L 160,257.78125 l -0.3125,-41.9375 c -0.2578,-36.17914 -0.0339,-42.53317 1.21875,-45.53125 0.84706,-2.02728 2.41376,-3.76665 4.1875,-4.875 1.77374,-1.10835 3.74945,-1.56424 5.375,-1.15625 l 2.375,0.59375 1.25,0.3125 -0.71875,-1.09375 -2.46875,-3.625 c -2.1366,-3.14846 -2.75848,-6.02525 -1.9375,-8.71875 0.82098,-2.6935 3.11961,-5.2867 7,-7.75 5.26791,-3.34409 21.50695,-12.40344 36.96875,-20.8125 7.7309,-4.20453 15.29581,-8.26025 21.1875,-11.34375 2.94584,-1.54175 5.47003,-2.84984 7.40625,-3.8125 1.93622,-0.96266 3.30013,-1.5902 3.78125,-1.75 3.8052,-1.26389 9.71207,-1.70097 15.53125,-1.375 z M 459,105.375 c 4.93011,0 7.97382,0.0855 10.28125,0.40625 2.30743,0.32078 3.87587,0.86928 6,1.84375 4.83917,2.22005 21.87131,11.67002 37.9375,20.875 8.0331,4.60249 15.84773,9.1296 21.8125,12.6875 2.98239,1.77895 5.48849,3.33199 7.34375,4.5 0.92763,0.58401 1.68415,1.08395 2.25,1.46875 0.56585,0.3848 0.96369,0.68302 1.0625,0.78125 2.21391,2.20086 3.25598,3.92049 3.28125,6.15625 0.0253,2.23576 -1.01813,5.06686 -3.1875,9.28125 -0.13754,0.26718 -0.0552,0.68324 0.125,0.875 0.18018,0.19176 0.38403,0.29216 0.625,0.375 0.48193,0.16569 1.12909,0.25 1.875,0.25 1.8187,0 3.83584,1.10219 5.5,2.875 1.66416,1.77281 2.94365,4.17184 3.375,6.6875 0.0877,0.51129 0.18577,2.28016 0.25,4.84375 0.0642,2.56359 0.1048,5.96932 0.125,10 0.0404,8.06137 -0.005,18.56534 -0.15625,29.5625 -0.26694,19.46364 -0.41973,29.50286 -0.78125,35.25 -0.36152,5.74714 -0.89543,7.14623 -2,9.5625 -3.8785,8.48421 -7.99136,14.05957 -13.3125,18.0625 -1.32736,0.99853 -5.8627,3.84189 -11.90625,7.5 -6.04355,3.65811 -13.62689,8.14421 -21.21875,12.59375 -7.59186,4.44954 -15.18404,8.86037 -21.21875,12.28125 -6.03471,3.42088 -10.60535,5.87576 -11.875,6.40625 -5.21229,2.17784 -10.73123,1.70628 -13.375,-0.9375 -0.64464,-0.64464 -1.23414,-1.40587 -1.65625,-2.09375 -0.42211,-0.68788 -0.65625,-1.35408 -0.65625,-1.5625 0,-0.51324 -0.13109,-0.99806 -0.375,-1.375 -0.24391,-0.37694 -0.63926,-0.65625 -1.125,-0.65625 -0.82673,0 -1.5,0.67314 -1.5,1.5 0,0.11984 -0.27458,0.61503 -0.875,1.125 -0.60042,0.50997 -1.46596,1.05991 -2.4375,1.5625 -1.94308,1.00519 -4.31956,1.77947 -5.8125,1.78125 -3.8711,0.005 -10.28488,-3.29355 -44,-23.375 -15.33166,-9.13187 -24.21713,-14.67474 -29.875,-19.15625 -5.65787,-4.48151 -8.0958,-7.87967 -10.625,-12.875 L 360,258.75 359.71875,216.3125 c -0.1573,-23.08876 -0.17642,-35.23561 0.46875,-42 0.32258,-3.38219 0.81408,-5.4016 1.5,-6.78125 0.68592,-1.37965 1.56112,-2.13398 2.8125,-3.0625 1.36049,-1.00949 3.9093,-1.88542 5.375,-1.84375 l 3,0.0937 0.84375,0.0312 -0.375,-0.75 -1.5625,-3.3125 c -1.00333,-2.10401 -1.27145,-3.98947 -0.78125,-5.84375 0.4902,-1.85428 1.76278,-3.69542 3.875,-5.6875 0.35623,-0.33596 1.55263,-1.19745 3.3125,-2.34375 1.75987,-1.1463 4.09718,-2.62884 6.84375,-4.3125 5.49315,-3.36732 12.60377,-7.60315 19.96875,-11.90625 14.72996,-8.60619 30.492,-17.50339 36.15625,-20.1875 6.13703,-2.90816 7.05828,-3.03125 17.84375,-3.03125 z m -199.9375,1.40625 c -5.20099,-0.085 -10.38821,0.54888 -14.125,1.96875 -1.40041,0.53211 -5.57973,2.7027 -11.375,5.78125 -5.79527,3.07855 -13.15787,7.04907 -20.625,11.15625 -14.93426,8.21437 -30.34158,16.90294 -35,19.90625 -3.4681,2.23591 -5.60156,4.08824 -6.5625,6.09375 -0.96094,2.00551 -0.60838,4.12495 0.6875,6.53125 0.53903,1.00092 1.11748,1.88912 2.21875,2.9375 1.10127,1.04838 2.69162,2.26706 5.34375,4 5.30426,3.46589 14.7912,8.99233 32.625,19.375 13.82409,8.04826 21.58523,12.54706 26.5625,15.1875 4.97727,2.64044 7.2159,3.43871 9.8125,4.09375 5.52936,1.39488 16.10012,0.55865 22.09375,-1.71875 0.74915,-0.28466 2.25553,-1.02753 4.4375,-2.15625 2.18197,-1.12872 5.03468,-2.6269 8.3125,-4.40625 6.55564,-3.55871 14.8917,-8.21512 23.46875,-13.09375 19.49978,-11.09149 30.00708,-17.36426 34.6875,-21.9375 2.34021,-2.28662 3.27221,-4.24813 2.9375,-6.15625 -0.33471,-1.90812 -1.82612,-3.57017 -3.96875,-5.5 -0.61998,-0.55841 -1.96054,-1.4759 -3.90625,-2.75 -1.94571,-1.2741 -4.49007,-2.86821 -7.4375,-4.6875 -5.89486,-3.63858 -13.39721,-8.16871 -21.03125,-12.65625 -7.63404,-4.48754 -15.38248,-8.9487 -21.71875,-12.5 -6.33627,-3.5513 -11.2427,-6.17476 -13.3125,-7.03125 -3.72307,-1.54062 -8.92401,-2.35252 -14.125,-2.4375 z m 197.78125,0.15625 c -5.126,0.27346 -10.212,1.34377 -14.0625,3.125 -4.57878,2.11813 -20.33624,11.02834 -35.40625,19.8125 -7.53501,4.39208 -14.87939,8.75802 -20.53125,12.1875 -2.82593,1.71474 -5.23907,3.19755 -7.03125,4.34375 -1.79218,1.1462 -2.92881,1.89196 -3.40625,2.34375 -0.77728,0.73552 -1.53828,1.61629 -2.15625,2.4375 -0.61797,0.82121 -1.08347,1.56435 -1.28125,2.1875 -0.44381,1.39832 0.18303,3.22378 1.25,5.09375 1.06697,1.86997 2.622,3.78329 4.40625,5.09375 0.32399,0.23795 1.16125,0.75031 2.5,1.5625 1.33875,0.81219 3.16961,1.89662 5.34375,3.1875 4.34828,2.58176 10.11042,5.96175 16.375,9.625 12.52916,7.3265 26.99491,15.69297 35.75,20.65625 12.01616,6.81198 25.89698,8.01627 36.625,3.0625 5.97983,-2.76125 22.33892,-12.03659 37.59375,-21 7.62741,-4.4817 14.9908,-8.86555 20.59375,-12.34375 2.80148,-1.7391 5.15174,-3.26657 6.90625,-4.4375 0.87726,-0.58547 1.60381,-1.06129 2.15625,-1.46875 0.55244,-0.40746 0.9236,-0.70135 1.15625,-0.96875 1.87417,-2.15408 2.86424,-4.30606 2.84375,-6.40625 -0.0205,-2.10019 -1.07095,-4.08867 -3,-5.875 -0.59705,-0.55288 -1.97528,-1.47078 -4.0625,-2.78125 -2.08722,-1.31047 -4.84318,-2.97553 -8.0625,-4.875 -6.43864,-3.79895 -14.71088,-8.53059 -23.0625,-13.21875 -8.35162,-4.68816 -16.76871,-9.32599 -23.53125,-12.9375 -3.38127,-1.80576 -6.35764,-3.36213 -8.6875,-4.53125 -2.32986,-1.16912 -4.00348,-1.97517 -4.90625,-2.28125 -4.01597,-1.36162 -9.1865,-1.86721 -14.3125,-1.59375 z m -197.78125,0.875 c 5.11432,0.0834 10.21955,0.88284 13.75,2.34375 1.91218,0.79127 6.85998,3.42235 13.1875,6.96875 6.32752,3.5464 14.0583,8.01531 21.6875,12.5 7.6292,4.48469 15.14578,8.99222 21.03125,12.625 2.94273,1.81639 5.50421,3.42153 7.4375,4.6875 1.93329,1.26597 3.26246,2.21713 3.75,2.65625 2.09659,1.88837 3.39494,3.44783 3.65625,4.9375 0.26131,1.48967 -0.39092,3.09833 -2.625,5.28125 -4.46816,4.36585 -15.00719,10.66247 -34.5,21.75 -8.57166,4.87557 -16.92079,9.53921 -23.46875,13.09375 -3.27398,1.77727 -6.07755,3.28246 -8.25,4.40625 -2.17245,1.12379 -3.7266,1.85925 -4.34375,2.09375 -5.69465,2.1638 -16.40323,2.98114 -21.53125,1.6875 -2.53979,-0.6407 -4.61833,-1.37712 -9.5625,-4 -4.94417,-2.62288 -12.70854,-7.1088 -26.53125,-15.15625 -17.83284,-10.38212 -27.30527,-15.93985 -32.5625,-19.375 -2.62861,-1.71758 -4.19284,-2.89836 -5.21875,-3.875 -1.02591,-0.97664 -1.51485,-1.75986 -2.03125,-2.71875 -1.2201,-2.26559 -1.46652,-3.90269 -0.65625,-5.59375 0.81027,-1.69106 2.77584,-3.48799 6.1875,-5.6875 4.5515,-2.93439 20.04104,-11.66423 34.96875,-19.875 7.46386,-4.10538 14.8051,-8.08122 20.59375,-11.15625 5.78865,-3.07503 10.08693,-5.27682 11.25,-5.71875 3.53854,-1.34454 8.66693,-1.95838 13.78125,-1.875 z m 197.84375,0.15625 c 5.0281,-0.26823 10.10001,0.23014 13.9375,1.53125 0.75714,0.25671 2.46389,1.02465 4.78125,2.1875 2.31736,1.16285 5.27965,2.72799 8.65625,4.53125 6.7532,3.60652 15.15326,8.25208 23.5,12.9375 8.34674,4.68542 16.63345,9.39421 23.0625,13.1875 3.21452,1.89664 5.95729,3.57286 8.03125,4.875 2.07396,1.30214 3.5227,2.27213 3.9375,2.65625 1.79043,1.65797 2.63885,3.37234 2.65625,5.15625 0.0174,1.78391 -0.82292,3.71469 -2.59375,5.75 -0.0982,0.11283 -0.4683,0.42033 -1,0.8125 -0.5317,0.39217 -1.2557,0.8886 -2.125,1.46875 -1.73859,1.16031 -4.07903,2.67056 -6.875,4.40625 -5.59194,3.47137 -12.94029,7.86511 -20.5625,12.34375 -15.24441,8.95729 -31.66296,18.24219 -37.5,20.9375 -10.37404,4.79031 -23.94767,3.67304 -35.71875,-3 -8.74607,-4.95817 -23.19226,-13.33131 -35.71875,-20.65625 -6.26324,-3.66247 -12.06113,-7.07637 -16.40625,-9.65625 -2.17256,-1.28994 -3.97854,-2.37822 -5.3125,-3.1875 -1.33396,-0.80928 -2.23967,-1.3547 -2.4375,-1.5 -1.64032,-1.20474 -3.15777,-3.03132 -4.15625,-4.78125 -0.99848,-1.74993 -1.39228,-3.43913 -1.125,-4.28125 0.11853,-0.37344 0.54179,-1.13124 1.125,-1.90625 0.58321,-0.77501 1.30235,-1.59152 2.03125,-2.28125 0.26542,-0.25116 1.50058,-1.11116 3.28125,-2.25 1.78067,-1.13884 4.17805,-2.63143 7,-4.34375 5.64389,-3.42465 12.96885,-7.76642 20.5,-12.15625 15.06231,-8.77967 30.94629,-17.747 35.34375,-19.78125 3.67963,-1.70218 8.6594,-2.73177 13.6875,-3 z M 223.4375,141.875 c -3.41495,0.0126 -6.89898,0.69918 -9.75,1.78125 -2.85102,1.08207 -5.1096,2.53201 -6.0625,4.3125 -1.53807,2.87391 -1.42844,5.90727 0.0312,8.46875 1.40862,2.47187 4.08857,4.47571 7.65625,5.65625 l 0,0.0625 0.34375,0.0937 c 6.16814,1.89797 9.02425,1.91134 15.25,0.0625 3.99607,-1.18671 6.69561,-3.01727 8.1875,-5.1875 1.49189,-2.17023 1.73533,-4.68499 0.875,-6.96875 -1.72067,-4.56753 -7.68673,-8.31398 -16.53125,-8.28125 z m 200.59375,0.0312 c -5.18952,-0.0619 -10.37383,1.37384 -13.75,4.75 -2.61444,2.61444 -3.24135,5.85046 -2.09375,8.75 1.1476,2.89954 3.99592,5.46563 8.15625,6.9375 7.9621,2.81689 17.20086,1.33039 22.1875,-3.65625 0.81805,-0.81805 1.52664,-1.79939 2.0625,-2.78125 0.53586,-0.98186 0.90625,-1.9387 0.90625,-2.75 0,-2.77358 -1.46352,-5.13154 -3.71875,-6.9375 -2.25523,-1.80596 -5.30574,-3.07797 -8.625,-3.75 -1.65963,-0.33601 -3.39516,-0.54186 -5.125,-0.5625 z m -128.1875,0.1875 c -2.47892,-0.2097 -5.07229,-0.0838 -7.5,0.3125 -4.85543,0.79251 -9.15771,2.64568 -10.71875,5.5625 -3.06764,5.73195 0.62302,12.7498 7.625,14.78125 5.81919,1.68831 11.90597,1.32709 16.59375,-0.46875 4.68778,-1.79584 8.0625,-5.07083 8.0625,-9.1875 0,-2.22778 -0.44299,-3.99119 -1.59375,-5.46875 -1.15076,-1.47756 -2.95136,-2.64175 -5.59375,-3.84375 -2.02147,-0.91955 -4.39608,-1.4778 -6.875,-1.6875 z m 198.0625,0.0625 c -1.79536,0.0102 -3.59201,0.21038 -5.28125,0.59375 -3.23219,0.73354 -5.66524,1.67097 -7.46875,2.96875 -1.80351,1.29778 -2.95557,2.96717 -3.53125,5.03125 -0.63103,2.26255 -0.31674,4.48738 0.8125,6.40625 1.12924,1.91887 3.0784,3.53418 5.6875,4.71875 3.79156,1.72143 8.50032,2.23292 12.96875,1.71875 4.46843,-0.51417 8.70229,-2.05888 11.46875,-4.5625 1.56613,-1.41732 2.16165,-3.78277 2,-6.15625 -0.16165,-2.37348 -1.09933,-4.7873 -2.8125,-6.375 -3.00418,-2.78418 -8.45766,-4.37438 -13.84375,-4.34375 z M 223.4375,142.875 c 8.55942,-0.0317 14.08211,3.64358 15.59375,7.65625 0.75582,2.00633 0.57273,4.07585 -0.75,6 -1.32273,1.92415 -3.815,3.70302 -7.65625,4.84375 -6.01821,1.78721 -8.50279,1.78697 -14.3125,0.0312 l -0.34375,-0.0937 c -3.5758,-1.10031 -6.13334,-3.05519 -7.4375,-5.34375 -1.30416,-2.28856 -1.39428,-4.926 0,-7.53125 0.7382,-1.37934 2.80317,-2.80834 5.53125,-3.84375 2.72808,-1.03541 6.09024,-1.70659 9.375,-1.71875 z m 200.59375,0.0312 c 1.66103,0.016 3.3405,0.20792 4.9375,0.53125 3.19401,0.64667 6.09822,1.88943 8.1875,3.5625 2.08928,1.67307 3.34375,3.73098 3.34375,6.15625 0,0.48363 -0.29167,1.35294 -0.78125,2.25 -0.48958,0.89706 -1.16846,1.85596 -1.90625,2.59375 -4.6132,4.6132 -13.52979,6.07315 -21.15625,3.375 -3.95378,-1.3988 -6.55053,-3.75564 -7.5625,-6.3125 -1.01197,-2.55686 -0.50984,-5.30265 1.875,-7.6875 3.10908,-3.10908 8.07942,-4.51685 13.0625,-4.46875 z M 295.75,143.09375 c 2.38964,0.2028 4.64679,0.73653 6.53125,1.59375 2.57519,1.17143 4.2239,2.25387 5.21875,3.53125 0.99485,1.27738 1.40625,2.77686 1.40625,4.875 0,3.57098 -2.94659,6.54155 -7.40625,8.25 -4.45966,1.70845 -10.36865,2.09349 -15.96875,0.46875 -6.50644,-1.88769 -9.75088,-8.23493 -7,-13.375 1.27049,-2.37394 5.27536,-4.26519 9.96875,-5.03125 2.34669,-0.38303 4.86036,-0.5153 7.25,-0.3125 z m 198.15625,0.0937 c 5.18505,0.003 10.46679,1.53875 13.15625,4.03125 1.46868,1.36113 2.35319,3.5944 2.5,5.75 0.14681,2.1556 -0.44569,4.21993 -1.6875,5.34375 -2.53937,2.2981 -6.59381,3.78503 -10.90625,4.28125 -4.31244,0.49622 -8.86423,-0.003 -12.4375,-1.625 -2.46589,-1.11955 -4.24983,-2.61295 -5.25,-4.3125 -1.00017,-1.69955 -1.25229,-3.59996 -0.6875,-5.625 0.52265,-1.87395 1.51566,-3.31945 3.15625,-4.5 1.64059,-1.18055 3.96776,-2.09597 7.125,-2.8125 1.60752,-0.36482 3.3029,-0.53224 5.03125,-0.53125 z M 223.5,145 c -2.82355,-0.004 -5.63825,0.45902 -8,1.40625 -2.36175,0.94723 -4.27644,2.37544 -5.1875,4.375 -0.71878,1.57756 -0.66704,3.11555 0.34375,4.4375 1.01079,1.32195 2.84408,2.48499 5.625,3.75 4.62367,2.10326 7.78446,2.30648 12.9375,0.875 2.09152,-0.581 4.73242,-2.14266 6.125,-3.625 0.99283,-1.05682 1.61939,-1.83144 1.84375,-2.6875 0.22436,-0.85606 -0.005,-1.70048 -0.46875,-2.71875 -0.91204,-2.00171 -2.82544,-3.45182 -5.1875,-4.40625 C 229.16919,145.45182 226.32355,145.00437 223.5,145 z m 69.875,0.0625 c -1.41144,-0.0308 -2.8093,0.07 -4.15625,0.28125 -2.69391,0.42243 -5.13752,1.29676 -6.90625,2.625 -1.76873,1.32824 -2.8738,3.16549 -2.625,5.3125 0.26878,2.31949 2.36852,4.25834 5.1875,5.5625 2.81898,1.30416 6.43159,1.99591 10,1.65625 1.49881,-0.14266 3.10568,-0.461 4.53125,-0.84375 1.42557,-0.38275 2.65,-0.81699 3.40625,-1.3125 1.40105,-0.918 2.98305,-2.52335 3.65625,-3.78125 0.47872,-0.89451 0.68597,-1.73494 0.375,-2.59375 -0.31097,-0.85881 -1.04801,-1.67302 -2.25,-2.875 -2.71499,-2.71499 -6.98443,-3.93894 -11.21875,-4.03125 z m 129.03125,0.0312 c -1.87287,0.21053 -3.74651,0.69838 -5.59375,1.4375 -3.78853,1.51587 -5.92918,3.68098 -6.0625,6.0625 -0.13332,2.38152 1.75964,4.64834 5.375,6.34375 2.64746,1.24151 6.16133,1.73016 9.5,1.5625 3.33867,-0.16766 6.50259,-0.98538 8.53125,-2.5 2.12553,-1.58694 3.40739,-2.80338 3.875,-4.125 0.2338,-0.66081 0.25128,-1.34808 0.0312,-2 -0.22003,-0.65192 -0.63914,-1.28726 -1.21875,-1.9375 -3.36875,-3.77926 -8.81888,-5.47533 -14.4375,-4.84375 z m 69.96875,0.1875 c -4.03265,0.28553 -7.84776,1.75401 -10.4375,4.34375 -1.13337,1.13337 -1.80914,1.83738 -2,2.6875 -0.0954,0.42506 -0.0367,0.86267 0.125,1.28125 0.16174,0.41858 0.42032,0.83408 0.75,1.34375 2.01093,3.10885 6.28075,4.98617 10.78125,5.59375 4.5005,0.60758 9.2835,-0.0699 12.46875,-2.4375 2.12007,-1.57587 3.28582,-3.41406 3.3125,-5.25 0.0267,-1.83594 -1.11827,-3.53512 -3.21875,-4.8125 -3.49727,-2.12682 -7.7486,-3.03553 -11.78125,-2.75 z M 223.5,146 c 2.71274,0.004 5.44625,0.45076 7.65625,1.34375 2.21,0.89299 3.89008,2.22468 4.65625,3.90625 0.43048,0.9448 0.55164,1.4765 0.40625,2.03125 -0.14539,0.55475 -0.63251,1.2268 -1.59375,2.25 -1.18226,1.25846 -3.84734,2.83257 -5.6875,3.34375 -5.03476,1.39862 -7.71944,1.20293 -12.21875,-0.84375 -2.71933,-1.237 -4.4307,-2.36599 -5.25,-3.4375 -0.8193,-1.07151 -0.87063,-2.04412 -0.25,-3.40625 0.76478,-1.67852 2.44712,-2.98898 4.65625,-3.875 2.20913,-0.88602 4.91226,-1.3167 7.625,-1.3125 z m 69.84375,0.0625 c 4.04165,0.10262 8.11611,1.3036 10.5625,3.75 1.1764,1.1764 1.79608,1.93684 2,2.5 0.20392,0.56316 0.0825,0.98486 -0.34375,1.78125 -0.5202,0.97202 -2.0562,2.60357 -3.28125,3.40625 -0.5568,0.36483 -1.75395,0.81939 -3.125,1.1875 -1.37105,0.36811 -2.94371,0.67626 -4.375,0.8125 -3.37795,0.32153 -6.85783,-0.34014 -9.5,-1.5625 -2.64217,-1.22236 -4.38808,-3.00643 -4.59375,-4.78125 -0.20423,-1.76244 0.63772,-3.18772 2.21875,-4.375 1.58103,-1.18728 3.89631,-2.06536 6.46875,-2.46875 1.28622,-0.20169 2.62153,-0.28421 3.96875,-0.25 z m 129.1875,0.0312 c 5.33771,-0.59658 10.45107,1.04067 13.5625,4.53125 0.52645,0.5906 0.84287,1.09695 1,1.5625 0.15713,0.46555 0.1663,0.87374 0,1.34375 -0.3326,0.94002 -1.45724,2.13903 -3.53125,3.6875 -1.75543,1.31061 -4.79506,2.1203 -8,2.28125 -3.20494,0.16095 -6.5716,-0.32996 -9,-1.46875 -3.42599,-1.6066 -4.91379,-3.59678 -4.8125,-5.40625 0.10129,-1.80947 1.83428,-3.74577 5.4375,-5.1875 1.76387,-0.70576 3.56451,-1.14489 5.34375,-1.34375 z m 69.90625,0.21875 c 3.83155,-0.27191 7.89509,0.56027 11.1875,2.5625 1.9022,1.1568 2.77068,2.5457 2.75,3.96875 -0.0207,1.42305 -0.94417,3.01032 -2.90625,4.46875 -2.86771,2.1316 -7.44538,2.83113 -11.75,2.25 -4.30462,-0.58113 -8.30554,-2.47128 -10.0625,-5.1875 -0.31775,-0.49124 -0.54217,-0.86102 -0.65625,-1.15625 -0.11408,-0.29523 -0.11047,-0.47383 -0.0625,-0.6875 0.096,-0.42735 0.60282,-1.07157 1.71875,-2.1875 2.37232,-2.37232 5.9497,-3.75934 9.78125,-4.03125 z m -145.875,18.65625 c -1.0047,0.14472 -2.1683,0.47464 -3.59375,1.03125 -5.7018,2.22644 -15.61408,7.96732 -35.21875,19.34375 -17.10005,9.92302 -26.35418,15.4209 -32.125,20 -5.77082,4.5791 -8.04871,8.27242 -11.09375,14.34375 l -3.46875,6.9375 -0.0625,0.125 0,0.0937 -0.3125,41.875 c -0.13351,18.55479 -0.15135,29.0664 0.0312,35.25 0.1826,6.1836 0.56932,8.08288 1.375,9.3125 1.60581,2.45078 3.66077,3.84393 6.25,4 2.58923,0.15607 5.65869,-0.86949 9.40625,-2.9375 7.71323,-4.25638 22.87975,-13.09697 36.53125,-21.1875 6.82575,-4.04527 13.28229,-7.90205 18.21875,-10.90625 2.46823,-1.5021 4.54929,-2.78834 6.125,-3.78125 1.57571,-0.99291 2.60982,-1.67304 3.0625,-2.03125 5.17121,-4.09204 9.20662,-9.78572 11.71875,-16.5 0.94947,-2.53769 1.47047,-4.60481 1.75,-10.3125 0.27953,-5.70769 0.34003,-15.10249 0.375,-32.5 0.0412,-20.49506 0.0625,-39.10464 0.0312,-41.4375 -0.041,-3.05696 -0.87887,-5.30165 -2.78125,-7.5625 -1.18202,-1.40475 -2.13896,-2.56525 -3.625,-3.03125 -0.74302,-0.233 -1.58905,-0.26972 -2.59375,-0.125 z m 21.9375,0.0625 c -1.57266,0.3015 -2.7143,1.22654 -3.875,2.46875 l -2.5,2.6875 -0.125,0.125 0,0.21875 0,43.15625 0,43.1875 0,0.0937 0.0625,0.0937 2.78125,6 c 1.69099,3.61404 4.85075,7.94474 7.75,10.65625 0.64299,0.60135 2.0472,1.6307 4.125,3.03125 2.0778,1.40055 4.78461,3.15234 7.9375,5.15625 6.30578,4.00781 14.36101,8.9654 22.46875,13.875 8.10774,4.9096 16.27856,9.77636 22.84375,13.5625 3.2826,1.89307 6.16517,3.51632 8.4375,4.75 2.27233,1.23368 3.91036,2.06481 4.8125,2.40625 2.33836,0.88502 3.97172,1.33123 5.46875,1.15625 1.49703,-0.17498 2.7725,-0.96143 4.34375,-2.3125 l 2.78125,-2.4375 0.1875,-0.125 0,-0.25 0.28125,-39.75 c 0.0921,-12.90529 0.0729,-23.30111 -0.0625,-30.90625 -0.13535,-7.60514 -0.36945,-12.35435 -0.75,-14.1875 -1.58886,-7.65354 -7.75064,-17.30104 -14.46875,-22.71875 -1.60962,-1.29805 -6.30108,-4.3438 -12.6875,-8.3125 -6.38642,-3.9687 -14.41056,-8.81194 -22.5625,-13.59375 -16.50035,-9.67887 -25.48722,-14.80899 -31,-16.9375 -2.75639,-1.06425 -4.67734,-1.39525 -6.25,-1.09375 z m -21.8125,0.9375 c 0.89131,-0.1305 1.57797,-0.0876 2.15625,0.0937 1.15656,0.36268 2.01276,1.2914 3.1875,2.6875 1.7887,2.12575 2.49245,4.04444 2.53125,6.9375 0.0303,2.25774 0.01,20.94338 -0.0312,41.4375 -0.035,17.39624 -0.0666,26.8088 -0.34375,32.46875 -0.2772,5.65995 -0.78801,7.51238 -1.71875,10 -2.45377,6.55828 -6.39048,12.09346 -11.40625,16.0625 -0.33834,0.26774 -1.40055,0.98057 -2.96875,1.96875 -1.5682,0.98818 -3.65944,2.28077 -6.125,3.78125 -4.93113,3.00095 -11.36419,6.86243 -18.1875,10.90625 -13.64662,8.08764 -28.8449,16.9147 -36.53125,21.15625 -3.6647,2.02229 -6.56341,2.94995 -8.84375,2.8125 -2.28034,-0.13745 -3.97951,-1.25839 -5.46875,-3.53125 -0.62144,-0.94844 -1.03723,-2.6657 -1.21875,-8.8125 -0.18152,-6.1468 -0.16475,-16.66562 -0.0312,-35.21875 l 0.3125,-41.75 3.4375,-6.84375 c 3.02876,-6.03885 5.14379,-9.50193 10.8125,-14 5.66871,-4.49807 14.90363,-9.98538 32,-19.90625 19.60416,-11.37613 29.53933,-17.12456 35.0625,-19.28125 1.38079,-0.53917 2.48369,-0.83825 3.375,-0.96875 z m 22,0.0312 c 1.28951,-0.24722 3.04478,0.0301 5.71875,1.0625 5.34794,2.06486 14.34724,7.16714 30.84375,16.84375 8.1447,4.77756 16.15391,9.6307 22.53125,13.59375 6.37734,3.96305 11.1343,7.07305 12.59375,8.25 6.49571,5.23837 12.6078,14.81666 14.125,22.125 0.32311,1.55643 0.58365,6.40896 0.71875,14 0.1351,7.59104 0.15454,18.00605 0.0625,30.90625 L 455,312.3125 l -2.625,2.25 c -1.51607,1.30363 -2.59107,1.95099 -3.8125,2.09375 -1.22143,0.14276 -2.70767,-0.22616 -5,-1.09375 -0.76466,-0.28941 -2.42754,-1.11679 -4.6875,-2.34375 -2.25996,-1.22696 -5.12831,-2.85961 -8.40625,-4.75 -6.55587,-3.78077 -14.70963,-8.6246 -22.8125,-13.53125 -8.10287,-4.90665 -16.14106,-9.87312 -22.4375,-13.875 -3.14822,-2.00094 -5.87214,-3.76408 -7.9375,-5.15625 -2.06536,-1.39217 -3.49503,-2.43399 -4,-2.90625 -2.77235,-2.59281 -5.9131,-6.88537 -7.53125,-10.34375 l -2.75,-5.875 0,-43.09375 0,-42.9375 2.375,-2.5625 c 1.1105,-1.1885 2.02299,-1.94028 3.3125,-2.1875 z m -199.90625,0.5 c -0.97698,0.0428 -1.83133,0.28704 -2.5625,0.71875 -1.46233,0.86342 -2.3866,2.43359 -3.25,4.5 -0.17041,0.40786 -0.29193,0.99305 -0.40625,1.8125 -0.11432,0.81945 -0.21603,1.85253 -0.3125,3.09375 -0.19294,2.48244 -0.37213,5.74966 -0.5,9.5625 -0.25574,7.62568 -0.37614,17.41324 -0.375,27.28125 0.001,9.86801 0.14872,19.83759 0.40625,27.8125 0.12876,3.98745 0.27545,7.47611 0.46875,10.21875 0.1933,2.74264 0.40594,4.69246 0.6875,5.75 1.93835,7.28137 6.00856,14.03864 11.71875,19.46875 0.60639,0.57665 1.84985,1.49629 3.625,2.71875 1.77515,1.22246 4.06691,2.73998 6.75,4.46875 5.36618,3.45754 12.25233,7.7333 19.40625,12.09375 14.30785,8.7209 29.69506,17.73062 36.34375,21.03125 3.19255,1.58489 5.16995,2.46099 6.8125,2.65625 1.64255,0.19526 2.90375,-0.35386 4.40625,-1.40625 l 1.28125,-0.9375 -0.4375,0 c 1.04135,-1.09999 2.0145,-2.59922 2.46875,-4.09375 0.11014,-0.36238 0.19936,-0.90801 0.28125,-1.6875 0.0819,-0.77949 0.14207,-1.76925 0.21875,-2.96875 0.15337,-2.39899 0.30699,-5.56706 0.4375,-9.28125 0.26103,-7.42837 0.46429,-16.98343 0.59375,-26.59375 0.12946,-9.61032 0.18267,-19.3015 0.125,-26.96875 -0.0288,-3.83363 -0.10125,-7.14143 -0.1875,-9.71875 -0.0863,-2.57732 -0.17649,-4.36673 -0.34375,-5.25 -1.45279,-7.67173 -6.43934,-17.05835 -11.5,-21.5 -4.51,-3.95834 -7.98703,-6.0987 -45.53125,-28.21875 -14.05889,-8.28313 -22.1169,-12.71719 -27.25,-14.09375 -1.28328,-0.34414 -2.39802,-0.51155 -3.375,-0.46875 z m 378.3125,0.59375 c -1.09866,0.064 -2.30703,0.31503 -3.625,0.75 -0.91715,0.30269 -2.9481,1.34316 -6.09375,3.03125 -3.14565,1.68809 -7.34542,3.9951 -12.375,6.84375 -10.05917,5.6973 -23.41636,13.475 -38.25,22.25 -8.66153,5.12382 -14.61815,9.65249 -18.71875,14.75 -4.1006,5.09751 -6.33359,10.76362 -7.59375,18 -0.41233,2.36775 -0.63047,8.24545 -0.75,15.9375 -0.11953,7.69205 -0.10933,17.13447 0,26.4375 0.10933,9.30303 0.30027,18.45657 0.59375,25.5625 0.14674,3.55296 0.31495,6.58021 0.5,8.875 0.0925,1.14739 0.21006,2.1242 0.3125,2.875 0.10244,0.7508 0.19528,1.28453 0.34375,1.65625 0.65798,1.64737 1.37191,2.92708 2.28125,3.875 0.90934,0.94792 2.02255,1.53792 3.3125,1.71875 2.57989,0.36166 5.83667,-0.77309 10.46875,-3.1875 9.65319,-5.03159 25.00345,-13.93615 38.46875,-22.09375 6.73265,-4.0788 12.99555,-7.95264 17.84375,-11.09375 4.8482,-3.14111 8.23445,-5.46362 9.40625,-6.625 5.43988,-5.3915 9.83652,-13.58656 11.21875,-20.875 0.14685,-0.77437 0.25212,-2.43556 0.375,-4.9375 0.12288,-2.50194 0.24078,-5.81059 0.34375,-9.65625 0.20595,-7.69132 0.35365,-17.60999 0.40625,-27.90625 0.16358,-32.01862 0.0127,-37.94569 -1.40625,-41.3125 -0.95103,-2.25642 -2.26806,-3.78609 -4.0625,-4.46875 -0.89722,-0.34133 -1.90134,-0.47027 -3,-0.40625 z m -378.25,0.40625 c 0.83927,-0.034 1.81576,0.11154 3.03125,0.4375 4.86197,1.30385 12.98268,5.72295 27.03125,14 37.54302,22.11935 40.88931,24.18417 45.34375,28.09375 4.77556,4.19143 9.78609,13.53705 11.1875,20.9375 0.13305,0.70262 0.25798,2.53087 0.34375,5.09375 0.0858,2.56288 0.15871,5.89045 0.1875,9.71875 0.0576,7.65659 0.004,17.30151 -0.125,26.90625 -0.12938,9.60474 -0.33312,19.14546 -0.59375,26.5625 -0.13032,3.70852 -0.2852,6.89887 -0.4375,9.28125 -0.0762,1.19119 -0.1392,2.18025 -0.21875,2.9375 -0.0796,0.75725 -0.19184,1.30866 -0.25,1.5 -0.50501,1.66152 -1.93569,3.76705 -2.9375,4.46875 -1.43074,1.00213 -2.33542,1.41444 -3.71875,1.25 -1.38333,-0.16444 -3.29613,-0.98751 -6.46875,-2.5625 -6.54931,-3.25128 -21.95298,-12.25445 -36.25,-20.96875 -7.14851,-4.35715 -14.05086,-8.64316 -19.40625,-12.09375 -2.6777,-1.72529 -4.9574,-3.2558 -6.71875,-4.46875 -1.76135,-1.21295 -3.01356,-2.13117 -3.5,-2.59375 -5.58189,-5.30811 -9.54913,-11.90637 -11.4375,-19 -0.23136,-0.86899 -0.4644,-2.87174 -0.65625,-5.59375 -0.19185,-2.72201 -0.34025,-6.20807 -0.46875,-10.1875 -0.25701,-7.95886 -0.40511,-17.89065 -0.40625,-27.75 -0.001,-9.85935 0.11985,-19.64187 0.375,-27.25 0.12758,-3.80407 0.30902,-7.04276 0.5,-9.5 0.0955,-1.22862 0.20273,-2.27564 0.3125,-3.0625 0.10977,-0.78686 0.22667,-1.35707 0.3125,-1.5625 0.8316,-1.99029 1.67902,-3.3123 2.84375,-4 0.58236,-0.34385 1.28573,-0.55972 2.125,-0.59375 z m 378.3125,0.59375 c 0.98445,-0.0583 1.81684,0.0601 2.5625,0.34375 1.49133,0.56735 2.64541,1.8045 3.53125,3.90625 1.25923,2.98773 1.47606,8.92366 1.3125,40.9375 -0.0526,10.28957 -0.20056,20.22459 -0.40625,27.90625 -0.10284,3.84083 -0.22146,7.10393 -0.34375,9.59375 -0.12229,2.48982 -0.26216,4.21752 -0.375,4.8125 -1.33485,7.03866 -5.66648,15.11959 -10.9375,20.34375 -0.94282,0.93444 -4.41495,3.3674 -9.25,6.5 -4.83505,3.1326 -11.08616,7.01878 -17.8125,11.09375 -13.45267,8.14995 -28.79602,17.02206 -38.40625,22.03125 -4.57197,2.38307 -7.71052,3.39718 -9.875,3.09375 -1.08224,-0.15171 -1.94125,-0.59577 -2.71875,-1.40625 -0.7775,-0.81048 -1.46386,-1.98545 -2.09375,-3.5625 -0.0676,-0.16934 -0.18286,-0.68516 -0.28125,-1.40625 -0.0984,-0.72109 -0.18963,-1.67639 -0.28125,-2.8125 -0.18324,-2.27223 -0.35358,-5.29854 -0.5,-8.84375 -0.29284,-7.09042 -0.48451,-16.23574 -0.59375,-25.53125 -0.10924,-9.29551 -0.11933,-18.75871 0,-26.4375 0.11933,-7.67879 0.37638,-13.63575 0.75,-15.78125 1.24113,-7.12708 3.38863,-12.57574 7.375,-17.53125 3.98637,-4.95551 9.82637,-9.43724 18.4375,-14.53125 14.82934,-8.77245 28.19899,-16.52606 38.25,-22.21875 5.0255,-2.84634 9.20946,-5.16175 12.34375,-6.84375 3.13429,-1.682 5.27448,-2.74993 5.9375,-2.96875 1.25738,-0.41497 2.39055,-0.62916 3.375,-0.6875 z m -216.875,28.78125 c -4.58572,0 -9.14919,3.81615 -12.28125,8.75 -3.13206,4.93385 -4.86875,11.02473 -3.46875,15.90625 0.53423,1.86275 1.68398,4.1691 2.71875,5.3125 l 0.875,0.96875 0,-0.40625 c 1.16574,0.84835 2.60934,1.36197 4.25,1.375 2.03446,0.0162 4.22016,-0.56621 6.0625,-1.78125 6.13796,-4.04806 9.56611,-11.46804 10.03125,-17.9375 0.23257,-3.23473 -0.2817,-6.2529 -1.625,-8.5 -1.3433,-2.2471 -3.56134,-3.6875 -6.5625,-3.6875 z m 56.84375,0 c -2.57586,0 -4.58884,0.67042 -5.96875,2.21875 -1.37991,1.54833 -2.10024,3.87773 -2.40625,7.0625 -0.75777,7.88623 3.61662,16.52943 10.5,20.78125 2.06399,1.27492 3.86211,1.90846 5.625,1.8125 1.76289,-0.096 3.42723,-0.94901 5.15625,-2.4375 1.26704,-1.09079 2.05116,-1.93172 2.46875,-3.1875 0.41759,-1.25578 0.46536,-2.83192 0.4375,-5.4375 -0.0569,-5.32749 -1.99252,-10.5069 -4.90625,-14.375 -2.91373,-3.8681 -6.82402,-6.4375 -10.90625,-6.4375 z m -56.84375,1 c 2.68856,0 4.52261,1.18657 5.71875,3.1875 1.19614,2.00093 1.69062,4.8204 1.46875,7.90625 -0.44373,6.17171 -3.75457,13.3571 -9.5625,17.1875 -1.66063,1.09521 -3.6983,1.63955 -5.53125,1.625 -1.83295,-0.0146 -3.43685,-0.58834 -4.375,-1.625 -0.81903,-0.90502 -2.01529,-3.18493 -2.5,-4.875 -1.27664,-4.45138 0.32472,-10.3692 3.34375,-15.125 3.01903,-4.7558 7.42197,-8.28125 11.4375,-8.28125 z m 56.84375,0 c 3.65508,0 7.34218,2.36819 10.125,6.0625 2.78282,3.69431 4.63307,8.65802 4.6875,13.75 0.0276,2.58553 -0.0311,4.09082 -0.375,5.125 -0.3439,1.03418 -0.9582,1.69171 -2.1875,2.75 -1.63148,1.40452 -3.07643,2.10661 -4.5625,2.1875 -1.48607,0.0809 -3.09437,-0.4718 -5.0625,-1.6875 -6.52578,-4.03094 -10.71569,-12.36421 -10,-19.8125 0.29567,-3.07712 0.99192,-5.16231 2.15625,-6.46875 1.16433,-1.30644 2.81552,-1.90625 5.21875,-1.90625 z m -0.0625,2 c -1.52548,0 -2.90558,1.04106 -3.90625,2.53125 -1.00067,1.49019 -1.65625,3.44567 -1.65625,5.46875 0,2.43918 1.23875,5.81147 2.90625,8.90625 1.6675,3.09478 3.73269,5.88269 5.71875,7.09375 1.72095,1.04941 2.67315,1.64116 3.59375,1.84375 0.9206,0.20259 1.72326,-0.0388 2.84375,-0.46875 0.63759,-0.24466 1.11504,-0.85754 1.625,-1.625 0.50996,-0.76746 0.98738,-1.70237 1.3125,-2.6875 0.9283,-2.81277 0.82793,-4.68949 -0.5,-8.6875 -0.93142,-2.80425 -3.01259,-5.8328 -5.28125,-8.21875 -1.13433,-1.19297 -2.30164,-2.23049 -3.4375,-2.96875 -1.13586,-0.73826 -2.21837,-1.1875 -3.21875,-1.1875 z m -57.71875,0.1875 c -1.61976,0.33847 -3.32344,1.5827 -5.53125,3.6875 -5.42877,5.17546 -7.24951,12.24759 -6.28125,17 0.48413,2.3762 1.70904,4.21104 3.625,4.8125 1.91596,0.60146 4.35043,-0.10285 7.125,-2.4375 3.14298,-2.64463 5.42778,-6.85229 6.5,-10.9375 1.07222,-4.08521 0.97194,-8.09572 -1.0625,-10.34375 -1.29944,-1.43586 -2.75524,-2.11972 -4.375,-1.78125 z m 57.71875,0.8125 c 0.66716,0 1.60942,0.35085 2.65625,1.03125 1.04683,0.6804 2.18989,1.66472 3.28125,2.8125 2.18273,2.29557 4.17225,5.25754 5.03125,7.84375 1.30677,3.93431 1.41561,5.38285 0.53125,8.0625 -0.29491,0.89357 -0.73294,1.75341 -1.1875,2.4375 -0.45456,0.68409 -0.9817,1.17103 -1.1875,1.25 -1.09608,0.42061 -1.59278,0.55088 -2.25,0.40625 -0.65722,-0.14463 -1.56808,-0.64284 -3.28125,-1.6875 -1.64776,-1.00478 -3.75653,-3.71495 -5.375,-6.71875 -1.61847,-3.0038 -2.78125,-6.34835 -2.78125,-8.4375 0,-1.80708 0.58549,-3.5909 1.46875,-4.90625 0.88326,-1.31535 2.04728,-2.09375 3.09375,-2.09375 z m -57.5,0.1875 c 1.26801,-0.26496 2.23293,0.17224 3.40625,1.46875 1.63005,1.80119 1.86915,5.49946 0.84375,9.40625 -1.0254,3.90679 -3.26327,7.97692 -6.1875,10.4375 -2.63199,2.21467 -4.72036,2.71056 -6.1875,2.25 -1.46714,-0.46056 -2.498,-1.93661 -2.9375,-4.09375 -0.879,-4.31428 0.82207,-11.12617 6,-16.0625 2.15701,-2.05637 3.79449,-3.14129 5.0625,-3.40625 z m -57.25,2.6875 -3,1.1875 c -0.78336,0.31014 -2.31437,0.62941 -4.1875,0.84375 -1.87313,0.21434 -4.09788,0.34142 -6.34375,0.40625 -4.49174,0.12965 -9.13565,-0.081 -11.09375,-0.625 -0.73142,-0.2032 -1.26112,-0.35598 -1.6875,-0.40625 -0.21319,-0.0251 -0.41473,-0.0762 -0.6875,0.0937 -0.13638,0.085 -0.25271,0.27418 -0.28125,0.4375 -0.0285,0.16332 -0.006,0.29797 0.0312,0.40625 0.15043,0.43312 0.47102,0.79111 1.03125,1.4375 0.56023,0.64639 1.34642,1.50647 2.40625,2.65625 2.13774,2.31918 4.41151,5.66136 6.125,8.84375 1.71349,3.18239 2.85732,6.26235 2.90625,7.84375 0.006,0.17921 0.004,0.34668 0.15625,0.5625 0.0763,0.10791 0.2353,0.22848 0.40625,0.25 0.17095,0.0215 0.31666,-0.0425 0.40625,-0.0937 0.17918,-0.10248 0.27071,-0.20502 0.375,-0.34375 0.10429,-0.13873 0.20025,-0.30271 0.3125,-0.5 0.44899,-0.78915 1.02861,-2.1243 1.65625,-3.8125 1.22943,-3.30692 3.29958,-7.58246 4.53125,-9.375 1.27057,-1.84916 3.5103,-4.66779 4.90625,-6.1875 l 2.59375,-2.8125 -0.5625,-0.8125 z m 171.40625,0.0625 1.03125,1.1875 3.5,4.09375 c 1.96593,2.29356 4.29537,6.11506 6.125,9.75 0.91482,1.81747 1.71755,3.56705 2.28125,5.09375 0.5637,1.5267 0.88928,2.85012 0.90625,3.59375 0.004,0.19482 0.007,0.3311 0.0625,0.5 0.0277,0.0845 0.0656,0.18282 0.15625,0.28125 0.0907,0.0984 0.2747,0.18511 0.4375,0.1875 0.32559,0.005 0.45605,-0.15892 0.5625,-0.28125 0.10645,-0.12233 0.18665,-0.26732 0.28125,-0.4375 0.37841,-0.68074 0.84167,-1.86257 1.375,-3.53125 0.9949,-3.11286 3.04033,-7.4165 4.46875,-9.375 1.45875,-2.00008 4.32484,-5.11248 6.28125,-6.84375 l 3.65625,-3.21875 -0.5,-0.84375 -4,1.40625 c -4.93863,1.75433 -13.43917,1.8419 -19.9375,0.15625 l -5.15625,-1.34375 -1.53125,-0.375 z m -173.0625,1.6875 -1.125,1.21875 c -1.45207,1.58081 -3.6581,4.37375 -4.96875,6.28125 -1.34957,1.96412 -3.39726,6.20733 -4.65625,9.59375 -0.59501,1.60044 -1.13964,2.82391 -1.53125,3.53125 -0.25569,-1.97795 -1.29654,-4.6309 -2.875,-7.5625 -1.74806,-3.24659 -4.02612,-6.64988 -6.25,-9.0625 -1.05968,-1.14962 -1.8644,-1.99981 -2.40625,-2.625 -0.28417,-0.32788 -0.29539,-0.39556 -0.4375,-0.59375 0.29558,0.0676 0.54883,0.11598 1.03125,0.25 2.26524,0.62932 6.83551,0.78728 11.375,0.65625 2.26974,-0.0655 4.49498,-0.2188 6.40625,-0.4375 1.91127,-0.2187 3.48771,-0.4866 4.46875,-0.875 l 0.96875,-0.375 z M 446.5,205.5625 450.15625,206.5 c 6.70727,1.73985 15.23831,1.68159 20.5,-0.1875 l 1.59375,-0.5625 -1.71875,1.53125 c -2.03975,1.80501 -4.87498,4.90048 -6.40625,7 -1.56158,2.14108 -3.62149,6.41869 -4.65625,9.65625 -0.44203,1.383 -0.79822,2.22275 -1.09375,2.84375 -0.11827,-0.90458 -0.30701,-1.9031 -0.78125,-3.1875 -0.58157,-1.57509 -1.3841,-3.37429 -2.3125,-5.21875 -1.8568,-3.68892 -4.21593,-7.52799 -6.28125,-9.9375 l -2.5,-2.875 z m -230.03125,15.34375 c -2.20576,0.39074 -4.14232,1.8079 -5.4375,4.3125 -2.05987,3.98335 -1.89957,8.18031 0.5,14.59375 1.96377,5.24864 5.3825,9.42011 9.71875,11.8125 3.85819,2.12864 7.68703,1.27597 10.15625,-1.40625 2.46922,-2.68222 3.64857,-7.09533 2.5625,-12.125 -1.56467,-7.2461 -5.88196,-12.93053 -10.53125,-15.625 -2.32465,-1.34723 -4.76299,-1.95324 -6.96875,-1.5625 z m 281,0.46875 c -2.49928,0.49131 -5.2078,2.0203 -7.90625,4.71875 -2.52284,2.52284 -4.46881,5.77762 -5.5,9.25 -1.02921,3.46573 -1.5371,5.94779 -1.46875,8.09375 0.0684,2.14596 0.74698,3.93365 1.96875,5.9375 0.834,1.36786 1.54195,2.26938 2.46875,2.8125 0.9268,0.54312 1.99415,0.6875 3.5,0.6875 6.9675,0 12.44231,-4.83356 15.5,-13.5 2.676,-7.58458 1.44516,-13.66786 -2.03125,-16.5 -1.73821,-1.41607 -4.03197,-1.99131 -6.53125,-1.5 z m -280.8125,0.5 c 1.90567,-0.33758 4.10586,0.17677 6.28125,1.4375 4.35079,2.52147 8.55566,7.99048 10.0625,14.96875 1.02926,4.76656 -0.11146,8.89034 -2.3125,11.28125 -2.20104,2.39091 -5.4122,3.13247 -8.9375,1.1875 -4.09969,-2.26187 -7.3901,-6.22671 -9.28125,-11.28125 -2.35619,-6.29748 -2.48287,-10.09891 -0.5625,-13.8125 1.18048,-2.2828 2.84433,-3.44367 4.75,-3.78125 z m 281,0.5 c 2.24943,-0.44219 4.2103,0.0523 5.71875,1.28125 3.0169,2.45779 4.30686,8.0395 1.71875,15.375 -2.97371,8.4284 -8.0516,12.84375 -14.5625,12.84375 -1.44233,0 -2.30064,-0.15266 -3,-0.5625 -0.69936,-0.40984 -1.31999,-1.14844 -2.125,-2.46875 -1.1694,-1.91796 -1.74999,-3.47514 -1.8125,-5.4375 -0.0625,-1.96236 0.41998,-4.35489 1.4375,-7.78125 0.98275,-3.30928 2.82021,-6.41396 5.21875,-8.8125 2.59413,-2.59413 5.15682,-3.99531 7.40625,-4.4375 z m 1.59375,1.5 c -0.72913,0.004 -1.52903,0.31171 -2.40625,0.8125 -0.87722,0.50079 -1.83192,1.21511 -2.78125,2.03125 -1.89866,1.63228 -3.783,3.72667 -4.96875,5.75 -1.7779,3.03376 -2.87759,5.81608 -3.25,8.28125 -0.37241,2.46517 -0.012,4.6398 1.125,6.375 1.07301,1.63763 2.58919,2.55801 4.28125,2.65625 1.69206,0.0982 3.53025,-0.60475 5.34375,-2.03125 1.80553,-1.42023 3.71805,-4.32447 5.25,-7.4375 1.53195,-3.11303 2.65625,-6.39667 2.65625,-8.65625 0,-1.66724 -0.73327,-3.54799 -1.71875,-5.0625 -0.49274,-0.75726 -1.06659,-1.41535 -1.65625,-1.90625 -0.58966,-0.4909 -1.20177,-0.81586 -1.875,-0.8125 z m -281.15625,0.25 c -1.03529,-0.0767 -1.95488,0.12777 -2.71875,0.59375 -1.52774,0.93195 -2.36427,2.78576 -2.5625,5.03125 -0.39647,4.49098 1.66024,10.76554 6.40625,15.71875 2.49597,2.60494 4.56315,4.04189 6.46875,4.21875 0.9528,0.0884 1.86221,-0.15972 2.625,-0.75 0.76279,-0.59028 1.41158,-1.49018 1.96875,-2.65625 1.48382,-3.10538 0.95622,-7.40087 -0.71875,-11.40625 -1.67497,-4.00538 -4.53597,-7.74266 -8.03125,-9.625 -1.25768,-0.67731 -2.40221,-1.04827 -3.4375,-1.125 z m 281.15625,0.75 c 0.30865,-0.002 0.76493,0.18992 1.25,0.59375 0.48507,0.40383 0.98821,0.99702 1.4375,1.6875 0.89858,1.38096 1.5625,3.1395 1.5625,4.5 0,1.90981 -1.07011,5.1861 -2.5625,8.21875 -1.49239,3.03265 -3.42665,5.88073 -4.96875,7.09375 -1.68143,1.32261 -3.28365,1.8922 -4.65625,1.8125 -1.3726,-0.0797 -2.56226,-0.78759 -3.5,-2.21875 -0.98086,-1.49698 -1.31447,-3.36774 -0.96875,-5.65625 0.34572,-2.28851 1.39169,-4.97983 3.125,-7.9375 1.10345,-1.8829 2.92703,-3.9328 4.75,-5.5 0.91148,-0.7836 1.8245,-1.44926 2.625,-1.90625 0.8005,-0.45699 1.50155,-0.68548 1.90625,-0.6875 z m -281.21875,0.25 c 0.85605,0.0674 1.86541,0.37215 3.03125,1 3.2067,1.72692 5.99131,5.29305 7.59375,9.125 1.60244,3.83195 2.00409,7.90375 0.71875,10.59375 -0.51399,1.07569 -1.06833,1.8263 -1.65625,2.28125 -0.58792,0.45495 -1.21457,0.62959 -1.9375,0.5625 -1.44585,-0.13419 -3.41534,-1.40307 -5.84375,-3.9375 -4.55226,-4.75101 -6.48709,-10.80465 -6.125,-14.90625 0.18105,-2.0508 0.93824,-3.54512 2.09375,-4.25 0.57775,-0.35244 1.26895,-0.53615 2.125,-0.46875 z m -33.59375,14.25 c -1.62501,-0.10371 -3.05302,0.228 -4.25,0.96875 -2.39396,1.48151 -3.6875,4.56396 -3.6875,8.875 0,9.09774 4.76419,17.93415 11.4375,21.03125 l 0,0.0312 0.28125,0.125 c 2.03681,0.88689 3.51322,1.35768 4.875,1.34375 1.36178,-0.0139 2.56607,-0.53005 3.90625,-1.46875 2.03019,-1.422 3.21572,-3.72028 3.71875,-6.34375 0.50303,-2.62347 0.33506,-5.58907 -0.40625,-8.5625 -1.48263,-5.94686 -5.22836,-11.85429 -10.5,-14.40625 -1.95337,-0.94561 -3.74999,-1.49004 -5.375,-1.59375 z M 533.21875,240 c -1.7199,-0.14725 -3.60003,0.37597 -5.96875,1.5 -4.84607,2.29961 -8.49998,7.77042 -10.21875,13.4375 -1.71877,5.66708 -1.55168,11.60457 1.71875,14.875 1.52528,1.52528 3.7913,2.1711 6.1875,2.03125 2.3962,-0.13985 4.94314,-1.05456 7.125,-2.71875 3.93312,-2.99994 6.68207,-8.26279 7.84375,-13.46875 1.16168,-5.20596 0.78479,-10.40272 -2,-13.1875 -1.47638,-1.47638 -2.9676,-2.3215 -4.6875,-2.46875 z m -348.8125,0.375 c 1.45544,0.0963 3.13385,0.59661 5,1.5 4.88884,2.36665 8.51304,8.0052 9.9375,13.71875 0.71223,2.85677 0.87422,5.71558 0.40625,8.15625 -0.46797,2.44067 -1.57094,4.44577 -3.34375,5.6875 -1.25985,0.88243 -2.19162,1.30103 -3.3125,1.3125 -1.12088,0.0115 -2.47892,-0.38357 -4.46875,-1.25 -6.30046,-2.74344 -11.125,-11.41014 -11.125,-20.28125 0,-4.11439 1.21769,-6.79289 3.21875,-8.03125 1.00053,-0.61918 2.23206,-0.90881 3.6875,-0.8125 z m 348.71875,0.59375 c 1.44817,0.12398 2.68341,0.8084 4.0625,2.1875 2.36579,2.36579 2.86906,7.2663 1.75,12.28125 -1.11906,5.01495 -3.8098,10.11543 -7.46875,12.90625 -2.02318,1.54315 -4.41213,2.37267 -6.59375,2.5 -2.18162,0.12733 -4.13295,-0.44545 -5.40625,-1.71875 -2.84376,-2.84376 -3.15531,-8.4484 -1.5,-13.90625 1.65531,-5.45785 5.22537,-10.69509 9.6875,-12.8125 2.29257,-1.0879 4.02058,-1.56148 5.46875,-1.4375 z m -0.875,1.90625 c -0.27752,0.001 -0.44776,0.0809 -0.71875,0.1875 -0.27099,0.10663 -0.60487,0.25771 -0.96875,0.4375 -0.72775,0.35957 -1.6158,0.83586 -2.5,1.375 -2.3614,1.43987 -4.55179,4.04894 -6.1875,7 -1.63571,2.95106 -2.71875,6.24989 -2.71875,9.0625 0,3.71085 0.9388,6.25594 2.8125,7.34375 0.93685,0.54391 2.08159,0.67117 3.3125,0.40625 1.23091,-0.26492 2.5903,-0.91146 4.03125,-1.9375 1.90033,-1.35316 3.88834,-4.20929 5.46875,-7.3125 1.58041,-3.10321 2.71875,-6.41312 2.71875,-8.78125 0,-1.66724 -0.73327,-3.54799 -1.71875,-5.0625 -0.49274,-0.75726 -1.06659,-1.41535 -1.65625,-1.90625 -0.58966,-0.4909 -1.20177,-0.81586 -1.875,-0.8125 z m -347.625,0.1875 c -2.24379,0.21919 -3.85854,1.38854 -4.5625,3.3125 -0.70396,1.92396 -0.59104,4.51987 0.28125,7.78125 1.53863,5.75278 4.54141,10.15935 8.75,12.71875 1.32638,0.80662 2.21948,1.24692 3.09375,1.34375 0.87427,0.0968 1.62448,-0.23117 2.5,-0.8125 1.2669,-0.8412 2.49837,-2.67055 2.9375,-4.3125 1.04086,-3.89191 -0.5873,-8.9655 -3.21875,-13.0625 -1.31572,-2.0485 -2.88585,-3.85823 -4.5625,-5.125 -1.67665,-1.26677 -3.47735,-2.01386 -5.21875,-1.84375 z m 347.625,0.8125 c 0.30865,-0.002 0.76493,0.18992 1.25,0.59375 0.48507,0.40383 0.98821,0.99702 1.4375,1.6875 0.89858,1.38096 1.5625,3.1395 1.5625,4.5 0,2.02872 -1.08854,5.32684 -2.625,8.34375 -1.53646,3.01691 -3.54325,5.78895 -5.15625,6.9375 -1.36341,0.97084 -2.57829,1.55598 -3.625,1.78125 -1.04671,0.22527 -1.89596,0.12386 -2.59375,-0.28125 -1.39558,-0.81023 -2.34375,-2.96083 -2.34375,-6.5 0,-2.55363 1.02157,-5.72605 2.59375,-8.5625 1.57218,-2.83645 3.7123,-5.3566 5.84375,-6.65625 0.85992,-0.52434 1.7126,-1.00103 2.40625,-1.34375 0.34683,-0.17136 0.67588,-0.28436 0.90625,-0.375 0.23037,-0.0906 0.41502,-0.12535 0.34375,-0.125 z m -347.53125,0.1875 c 1.38663,-0.13546 2.94749,0.45203 4.5,1.625 1.55251,1.17297 3.08082,2.9087 4.34375,4.875 2.52585,3.93259 4.00744,8.86483 3.09375,12.28125 -0.36033,1.34731 -1.5891,3.14518 -2.5,3.75 -0.80842,0.53677 -1.26293,0.72058 -1.84375,0.65625 -0.58082,-0.0643 -1.39095,-0.46152 -2.6875,-1.25 -3.95573,-2.40562 -6.82477,-6.53125 -8.3125,-12.09375 -0.84334,-3.15315 -0.90021,-5.58126 -0.3125,-7.1875 0.58771,-1.60624 1.74928,-2.46386 3.71875,-2.65625 z m 115.25,15.8125 c -5.48897,0 -10.48315,4.41661 -13.5,10.03125 -3.01685,5.61464 -4.10555,12.49682 -1.4375,17.65625 0.43468,0.84059 1.03248,1.63455 1.65625,2.28125 0.62377,0.6467 1.2517,1.16001 1.90625,1.34375 5.07445,1.42448 10.42934,-1.30778 14.25,-5.875 3.82066,-4.56722 6.18963,-11.00598 5.34375,-17.3125 -0.3621,-2.69964 -1.18957,-4.75457 -2.5625,-6.125 -1.37293,-1.37043 -3.28165,-2 -5.65625,-2 z m 117.375,0 c -2.6866,0 -4.7473,0.64928 -6.15625,2.1875 -1.40895,1.53822 -2.12688,3.86103 -2.4375,7.09375 -0.75777,7.88623 3.61662,16.52943 10.5,20.78125 2.8741,1.77532 5.73885,2.22791 8.15625,1.40625 2.4174,-0.82166 4.32657,-2.91788 5.25,-6 2.00402,-6.68882 -0.38569,-14.3858 -6.21875,-20.4375 -2.06658,-2.14404 -3.39691,-3.38501 -4.71875,-4.125 -1.32184,-0.73999 -2.58819,-0.90625 -4.375,-0.90625 z m 40.96875,0.84375 c -0.14812,0.051 -0.23182,0.15176 -0.28125,0.21875 -0.0989,0.13397 -0.12771,0.23453 -0.15625,0.34375 -0.11417,0.43689 -0.15625,1.11343 -0.15625,2.09375 0,0.98032 0.0421,1.62561 0.15625,2.0625 0.0285,0.10922 0.0574,0.20978 0.15625,0.34375 0.0494,0.067 0.13313,0.16771 0.28125,0.21875 0.14812,0.051 0.3278,6e-4 0.4375,-0.0625 0.2194,-0.1262 0.26488,-0.2366 0.3125,-0.34375 0.0476,-0.10715 0.0893,-0.2073 0.125,-0.34375 0.28525,-1.09159 0.28525,-2.65841 0,-3.75 -0.0357,-0.13645 -0.0774,-0.26785 -0.125,-0.375 -0.0476,-0.10715 -0.0931,-0.21755 -0.3125,-0.34375 -0.1097,-0.0631 -0.28938,-0.11354 -0.4375,-0.0625 z M 299.96875,260.875 c 2.19807,0 3.80877,0.56088 4.96875,1.71875 1.15998,1.15787 1.90526,2.96101 2.25,5.53125 0.80086,5.97081 -1.47218,12.19593 -5.125,16.5625 -3.65282,4.36657 -8.61106,6.81594 -13.1875,5.53125 -0.31543,-0.0885 -0.9144,-0.48777 -1.46875,-1.0625 -0.55435,-0.57473 -1.08591,-1.32217 -1.46875,-2.0625 -2.44813,-4.73417 -1.49463,-11.31993 1.40625,-16.71875 2.90088,-5.39882 7.68178,-9.5 12.625,-9.5 z m 117.375,0 c 1.72746,0 2.76101,0.14012 3.90625,0.78125 1.14524,0.64113 2.41662,1.80845 4.46875,3.9375 5.63372,5.84488 7.84995,13.18987 5.96875,19.46875 -0.8525,2.84538 -2.51106,4.60461 -4.59375,5.3125 -2.08269,0.70789 -4.65817,0.34636 -7.34375,-1.3125 -6.52578,-4.03094 -10.71569,-12.36421 -10,-19.8125 0.30052,-3.12762 1.00414,-5.20806 2.1875,-6.5 1.18336,-1.29194 2.87818,-1.875 5.40625,-1.875 z m -117.5,2 c -1.87539,0 -3.86041,0.98959 -5.71875,2.65625 -1.85834,1.66666 -3.6075,4.01811 -5,6.8125 -1.42709,2.86379 -2.23241,5.1007 -2.46875,7.09375 -0.23634,1.99305 0.14637,3.72825 1.0625,5.46875 0.56344,1.07045 1.05184,1.91096 1.59375,2.53125 0.54191,0.62029 1.13931,1.02929 1.84375,1.15625 1.40887,0.25391 2.92958,-0.54596 5.21875,-2.0625 2.02584,-1.34209 4.25329,-4.26795 6.03125,-7.40625 1.77796,-3.1383 3.09375,-6.43889 3.09375,-8.71875 0,-1.85538 -0.68584,-3.71302 -1.71875,-5.125 -1.03291,-1.41198 -2.43648,-2.40625 -3.9375,-2.40625 z m 117.4375,0.15625 c -1.9436,0.22535 -3.62798,1.44098 -4.65625,3.28125 -1.54784,2.77012 -1.07688,6.86419 0.5625,10.78125 1.63938,3.91706 4.47898,7.67231 7.9375,9.78125 1.8007,1.09803 2.52703,1.62145 3.25,1.8125 0.36148,0.0955 0.73546,0.0678 1.0625,-0.0312 0.32704,-0.0991 0.65616,-0.22634 1.125,-0.40625 0.63759,-0.24466 1.11504,-0.85754 1.625,-1.625 0.50996,-0.76746 0.98738,-1.70237 1.3125,-2.6875 1.2789,-3.8751 -0.1589,-9.20787 -2.65625,-13.53125 -1.24868,-2.16169 -2.77149,-4.05918 -4.40625,-5.40625 -1.63476,-1.34707 -3.41877,-2.1702 -5.15625,-1.96875 z m -117.4375,0.84375 c 1.02857,0 2.21414,0.75486 3.125,2 0.91086,1.24514 1.53125,2.9287 1.53125,4.53125 0,1.86693 -1.23797,5.16373 -2.96875,8.21875 -1.73078,3.05502 -3.98378,5.91311 -5.71875,7.0625 -2.24631,1.48814 -3.59094,2.0957 -4.46875,1.9375 -0.4389,-0.0791 -0.83237,-0.32995 -1.28125,-0.84375 -0.44888,-0.5138 -0.92087,-1.30287 -1.46875,-2.34375 -0.84363,-1.60278 -1.15188,-3.06713 -0.9375,-4.875 0.21438,-1.80787 0.97253,-3.96686 2.375,-6.78125 1.34281,-2.69467 3.03887,-4.93734 4.78125,-6.5 1.74238,-1.56266 3.5216,-2.40625 5.03125,-2.40625 z m 117.5625,0.15625 c 1.35138,-0.15668 2.86508,0.47455 4.375,1.71875 1.50992,1.2442 2.98742,3.07869 4.1875,5.15625 2.40016,4.15513 3.71152,9.33187 2.59375,12.71875 -0.29491,0.89357 -0.73294,1.75341 -1.1875,2.4375 -0.45456,0.68409 -0.9817,1.17103 -1.1875,1.25 -0.49427,0.18967 -0.80817,0.33866 -1.03125,0.40625 -0.22308,0.0676 -0.33975,0.0818 -0.53125,0.0312 -0.383,-0.10121 -1.15698,-0.61397 -2.96875,-1.71875 -3.20928,-1.95697 -5.96282,-5.59623 -7.53125,-9.34375 -1.56843,-3.74752 -1.91653,-7.56357 -0.625,-9.875 0.89265,-1.59757 2.29757,-2.59474 3.90625,-2.78125 z m -158.875,1.625 c -6.1e-4,9e-5 -0.15565,0.0622 -0.15625,0.0625 -6e-4,3.1e-4 -0.0984,0.0391 -0.125,0.0625 -0.0266,0.0234 -0.0468,0.0429 -0.0625,0.0625 -0.12542,0.15651 -0.083,0.17268 -0.0937,0.21875 -0.0108,0.0461 -0.0255,0.11296 -0.0312,0.15625 -0.0232,0.17314 -0.0468,0.39522 -0.0625,0.75 -0.0626,1.41912 -0.0931,4.50336 -0.0937,8.90625 -5e-4,4.40288 0.0318,7.50748 0.0937,9.03125 0.0155,0.38094 0.0418,0.68311 0.0625,0.875 0.0104,0.0959 -0.009,0.12777 0.0312,0.25 0.0102,0.0306 0.0212,0.0925 0.0625,0.15625 0.0207,0.0319 0.0687,0.0475 0.125,0.0937 0.0282,0.0231 0.0931,0.0935 0.0937,0.0937 6.1e-4,2.9e-4 0.15563,0.0312 0.15625,0.0312 6.2e-4,7e-5 0.18688,1.5e-4 0.1875,0 6.2e-4,-1.5e-4 0.12438,-0.0621 0.125,-0.0625 6.2e-4,-3.7e-4 0.0708,-0.0408 0.0937,-0.0625 0.0229,-0.0217 0.0487,-0.0446 0.0625,-0.0625 0.0554,-0.0717 0.0814,-0.12332 0.0937,-0.15625 0.0493,-0.13172 0.019,-0.18369 0.0312,-0.28125 0.0123,-0.0976 0.0511,-0.22709 0.0625,-0.375 0.0228,-0.29582 0.039,-0.6861 0.0625,-1.21875 0.18186,-4.12029 0.1687,-10.93668 0,-15.53125 -0.006,-0.15716 0.006,-0.3796 0,-0.53125 -0.0233,-0.57313 -0.04,-1.01144 -0.0625,-1.34375 -0.0225,-0.33231 -0.0541,-0.51168 -0.0937,-0.6875 -0.01,-0.0439 0.008,-0.0706 -0.0625,-0.1875 -0.0177,-0.0292 -0.046,-0.0804 -0.0937,-0.125 -0.0239,-0.0223 -0.0931,-0.0621 -0.0937,-0.0625 -6.1e-4,-3.5e-4 -0.15564,-0.0624 -0.15625,-0.0625 -6.1e-4,-1.3e-4 -0.15564,-9e-5 -0.15625,0 z m 199.65625,1.4375 c -0.28536,0.10507 -0.36381,0.31584 -0.4375,0.5 -0.14739,0.36832 -0.17965,0.80681 -0.15625,1.375 0.0127,0.30745 0.0208,0.56808 0.0625,0.78125 0.0417,0.21317 0.0722,0.38468 0.28125,0.59375 0.10453,0.10454 0.30758,0.18539 0.5,0.15625 0.19242,-0.0291 0.29663,-0.10461 0.375,-0.1875 0.15675,-0.16578 0.25285,-0.33533 0.34375,-0.5625 0.17258,-0.43127 0.23619,-0.88888 0.21875,-1.3125 -0.0174,-0.42362 -0.0935,-0.84345 -0.40625,-1.15625 l -0.15625,-0.15625 -0.21875,0 0,0.0625 c -0.1372,-0.0475 -0.25817,-0.14827 -0.40625,-0.0937 z"
       id="path3006"
       inkscape:connector-curvature="0" />
  </g>
</svg>
